<svg id="projeto" xmlns="http://www.w3.org/2000/svg" viewBox="0 0 20 19.111"><defs><style>.cls-1{fill:none;stroke:#f69220;stroke-miterlimit:10;stroke-width:2px;}</style></defs><title>estrela_laranja</title><path class="cls-1" d="M17.444,7.092l-4.491-.426a.774.774,0,0,1-.643-.476L10.7,2.293a.77.77,0,0,0-1.429,0l-1.595,3.9a.759.759,0,0,1-.645.476l-4.489.426a.775.775,0,0,0-.437,1.35l3.384,2.973a.772.772,0,0,1,.244.76L4.719,16.342a.776.776,0,0,0,1.145.85l3.743-2.2a.776.776,0,0,1,.786,0l3.744,2.2a.773.773,0,0,0,1.145-.85l-1-4.168a.77.77,0,0,1,.244-.76l3.384-2.973a.785.785,0,0,0-.463-1.35Zm0,0"/></svg>