<svg id="projeto" xmlns="http://www.w3.org/2000/svg" viewBox="0 0 34 33"><defs><style>.cls-1{fill:#f69220;}</style></defs><title>estrela_cinza</title><path class="cls-1" d="M31.649,11.651l-8.839-.838a1.524,1.524,0,0,1-1.265-.936L18.38,2.207a1.514,1.514,0,0,0-2.812,0L12.43,9.877a1.5,1.5,0,0,1-1.268.936l-8.835.838a1.526,1.526,0,0,0-.861,2.656l6.659,5.85a1.52,1.52,0,0,1,.48,1.5l-2,8.2a1.527,1.527,0,0,0,2.253,1.672L16.226,27.2a1.527,1.527,0,0,1,1.547,0l7.369,4.328a1.522,1.522,0,0,0,2.252-1.672l-1.974-8.2a1.516,1.516,0,0,1,.48-1.5l6.659-5.85a1.545,1.545,0,0,0-.911-2.656Zm0,0"/></svg>