<svg id="projeto" xmlns="http://www.w3.org/2000/svg" viewBox="0 0 30 26"><defs><style>.cls-1{fill:#5e5f5f;}</style></defs><title>livro_cinza</title><path class="cls-1" d="M28.22,5.058H27.146V3.769a.6.6,0,0,0-.395-.568C21.56,1.255,17.873.856,15.789,2.015a3.252,3.252,0,0,0-.787.6,3.292,3.292,0,0,0-.787-.6C12.13.856,8.439,1.255,3.25,3.2a.6.6,0,0,0-.394.568V5.058H1.783a.609.609,0,0,0-.607.609V22.856a.608.608,0,0,0,.607.607h10.91v.561a.607.607,0,0,0,.607.607h3.4a.607.607,0,0,0,.607-.607v-.561H28.22a.608.608,0,0,0,.606-.607V5.667a.608.608,0,0,0-.606-.609Zm-12.613-1.2a1.68,1.68,0,0,1,.838-.816c.984-.51,3.514-1.023,9.486,1.15V19.646c-4.76-1.684-8.17-1.982-10.143-.887-.062.035-.123.07-.182.107ZM4.068,4.19c5.975-2.174,8.506-1.66,9.49-1.15a1.672,1.672,0,0,1,.836.816v15.01c-.057-.037-.117-.072-.18-.107-1.973-1.1-5.385-.795-10.146.889Zm8.625,17.951v.105H2.388V6.273h.467v14.24a.606.606,0,0,0,.607.606.639.639,0,0,0,.219-.041l0,0c6.254-2.342,8.873-1.816,9.879-1.295a1.977,1.977,0,0,1,.684.555,1.976,1.976,0,0,0-1.549,1.8Zm3.4,1.275H13.908V22.142c0-.328.449-.7,1.094-.7s1.094.367,1.094.7Zm11.518-1.17H17.31v-.105a1.978,1.978,0,0,0-1.553-1.8,2,2,0,0,1,.688-.555c1-.521,3.623-1.047,9.873,1.293a.784.784,0,0,0,.223.041.606.606,0,0,0,.605-.606V6.273h.467Zm0,0"/></svg>