<svg id="projeto" xmlns="http://www.w3.org/2000/svg" viewBox="0 0 54 54"><defs><style>.cls-1{fill:#677b46;}.cls-2{fill:#fff;}</style></defs><title>livro_verde</title><circle class="cls-1" cx="27" cy="27" r="26.5"/><path class="cls-2" d="M43.73,16.406H42.37V14.774a.764.764,0,0,0-.5-.719c-6.571-2.461-11.238-2.965-13.876-1.5a4.08,4.08,0,0,0-1,.762,4.172,4.172,0,0,0-1-.762c-2.638-1.466-7.307-.962-13.875,1.5a.765.765,0,0,0-.5.719v1.632H10.269a.771.771,0,0,0-.768.771V38.936a.768.768,0,0,0,.768.768H24.075v.712a.766.766,0,0,0,.77.766h4.307a.766.766,0,0,0,.768-.766V39.7H43.73a.769.769,0,0,0,.768-.768V17.178a.772.772,0,0,0-.768-.771Zm-15.964-1.52a2.123,2.123,0,0,1,1.061-1.034c1.246-.645,4.447-1.294,12,1.456V34.87c-6.023-2.129-10.339-2.509-12.836-1.12-.079.044-.156.089-.23.133Zm-14.6.422c7.563-2.75,10.763-2.1,12.008-1.456a2.115,2.115,0,0,1,1.06,1.034v19c-.073-.044-.148-.089-.227-.133-2.5-1.389-6.814-1.009-12.84,1.122ZM24.075,38.031v.133H11.037V17.945h.59V35.97a.768.768,0,0,0,.769.766.843.843,0,0,0,.275-.05h0c7.915-2.965,11.228-2.3,12.5-1.638a2.467,2.467,0,0,1,.867.7,2.5,2.5,0,0,0-1.962,2.281Zm4.307,1.612H25.615V38.031c0-.414.567-.881,1.385-.881s1.383.467,1.383.881Zm14.578-1.48H29.92v-.133a2.5,2.5,0,0,0-1.964-2.281,2.491,2.491,0,0,1,.87-.7c1.27-.661,4.584-1.327,12.5,1.634a.939.939,0,0,0,.283.054.767.767,0,0,0,.766-.766V17.945h.59Zm0,0"/></svg>