<svg id="projeto" xmlns="http://www.w3.org/2000/svg" viewBox="0 0 28 33"><defs><style>.cls-1{fill:#a5a8ab;}</style></defs><title>reiniciar_cinza</title><path class="cls-1" d="M14,32A12.754,12.754,0,0,1,1.26,19.26a12.627,12.627,0,0,1,.066-1.3,1,1,0,1,1,1.989.207,10.575,10.575,0,0,0-.055,1.1A10.74,10.74,0,1,0,14,8.518a10.934,10.934,0,0,0-2.022.19,1,1,0,1,1-.37-1.965A12.9,12.9,0,0,1,14,6.518,12.741,12.741,0,0,1,14,32Z"/><polygon class="cls-1" points="14.809 7.977 14.809 14.951 5.105 7.977 14.809 1 14.809 7.977"/></svg>