<svg id="projeto" xmlns="http://www.w3.org/2000/svg" viewBox="0 0 118 38"><defs><style>.cls-1,.cls-2{fill:#fff;}.cls-2{fill-rule:evenodd;}</style></defs><title>saber</title><path class="cls-1" d="M45.9,31.22h-.821v2.664a.2.2,0,0,1-.064.155.22.22,0,0,1-.376-.155V31.22h-.82a.215.215,0,0,1-.155-.063A.209.209,0,0,1,43.595,31a.211.211,0,0,1,.063-.157.216.216,0,0,1,.155-.066H45.9a.224.224,0,0,1,.22.223.22.22,0,0,1-.22.219Z"/><path class="cls-1" d="M47.368,33.449a.213.213,0,0,1,.155.063.2.2,0,0,1,.061.153.209.209,0,0,1-.062.155,1.125,1.125,0,0,1-.762.284,1.164,1.164,0,0,1,0-2.327,1.174,1.174,0,0,1,1.078.716,1.146,1.146,0,0,1,.085.448.207.207,0,0,1-.062.153.215.215,0,0,1-.155.062H46.061a.685.685,0,0,0,.105.208.705.705,0,0,0,.16.163.767.767,0,0,0,.2.106.752.752,0,0,0,.231.036.675.675,0,0,0,.252-.043.738.738,0,0,0,.212-.122A.224.224,0,0,1,47.368,33.449Zm.094-.725a.781.781,0,0,0-.1-.208.762.762,0,0,0-.366-.268.79.79,0,0,0-.23-.038.8.8,0,0,0-.231.038.767.767,0,0,0-.2.106.681.681,0,0,0-.266.369Z"/><path class="cls-1" d="M50.027,33.446a.21.21,0,0,1,.218.216.219.219,0,0,1-.07.158,1.163,1.163,0,1,1,0-1.761.22.22,0,0,1,.013.319.205.205,0,0,1-.155.063.226.226,0,0,1-.141-.051.779.779,0,0,0-.222-.136.711.711,0,0,0-.254-.046.728.728,0,0,0-.284.058.8.8,0,0,0-.232.157.752.752,0,0,0-.158.232.756.756,0,0,0,0,.569.736.736,0,0,0,.391.387.71.71,0,0,0,.284.058.758.758,0,0,0,.254-.044.734.734,0,0,0,.221-.136A.224.224,0,0,1,50.027,33.446Z"/><path class="cls-1" d="M51.017,31.991a1.037,1.037,0,0,1,.65-.214,1.022,1.022,0,0,1,.415.085,1.1,1.1,0,0,1,.345.232,1.128,1.128,0,0,1,.237.343,1.076,1.076,0,0,1,.086.425v1.024a.216.216,0,0,1-.369.155.214.214,0,0,1-.063-.155V32.862a.6.6,0,0,0-.053-.252.66.66,0,0,0-.346-.346.6.6,0,0,0-.252-.055.643.643,0,0,0-.252.051.661.661,0,0,0-.348.35.608.608,0,0,0-.051.252v1.024a.218.218,0,0,1-.218.219.215.215,0,0,1-.153-.064.21.21,0,0,1-.062-.155V32a.215.215,0,0,1,.216-.219.218.218,0,0,1,.218.214Z"/><path class="cls-1" d="M55.4,32.941a1.1,1.1,0,0,1-.342.821,1.163,1.163,0,1,1,0-1.646,1.142,1.142,0,0,1,.257.376A1.239,1.239,0,0,1,55.4,32.941Zm-1.163-.731a.71.71,0,0,0-.288.06.755.755,0,0,0-.23.156.737.737,0,0,0-.153.23.727.727,0,0,0,0,.567.7.7,0,0,0,.153.23.723.723,0,0,0,.518.216.724.724,0,0,0,.517-.218.767.767,0,0,0,.155-.23.719.719,0,0,0,.057-.28.73.73,0,0,0-.057-.283.8.8,0,0,0-.155-.232.765.765,0,0,0-.232-.156A.7.7,0,0,0,54.241,32.21Z"/><path class="cls-1" d="M55.717,33.888V31a.214.214,0,0,1,.061-.155.208.208,0,0,1,.155-.066.2.2,0,0,1,.153.066.216.216,0,0,1,.063.155V33.67h.1a.218.218,0,0,1,.151.371.211.211,0,0,1-.151.064h-.317a.2.2,0,0,1-.151-.064A.207.207,0,0,1,55.717,33.888Z"/><path class="cls-1" d="M59.061,32.941a1.1,1.1,0,0,1-.342.821,1.159,1.159,0,0,1-1.644,0,1.163,1.163,0,0,1,.821-1.985,1.123,1.123,0,0,1,.822.34,1.173,1.173,0,0,1,.257.376A1.221,1.221,0,0,1,59.061,32.941ZM57.9,32.21a.693.693,0,0,0-.285.06.754.754,0,0,0-.232.156.771.771,0,0,0-.153.23.727.727,0,0,0,0,.567.725.725,0,0,0,.153.23.709.709,0,0,0,.232.157.694.694,0,0,0,.285.058.708.708,0,0,0,.286-.058.7.7,0,0,0,.23-.159.733.733,0,0,0,.155-.23.687.687,0,0,0,.058-.28.7.7,0,0,0-.058-.283.727.727,0,0,0-.386-.389A.707.707,0,0,0,57.9,32.21Z"/><path class="cls-1" d="M61.285,33.848a1.163,1.163,0,1,1,.095-1.731,1.127,1.127,0,0,1,.342.824V34.1a.855.855,0,0,1-.048.282.983.983,0,0,1-.126.242,1.014,1.014,0,0,1-.191.2,1.247,1.247,0,0,1-.236.15,1.416,1.416,0,0,1-.269.094,1.186,1.186,0,0,1-.279.034,1.271,1.271,0,0,1-.629-.168,1.236,1.236,0,0,1-.262-.208,1.189,1.189,0,0,1-.2-.272.214.214,0,0,1-.032-.117.2.2,0,0,1,.063-.154.206.206,0,0,1,.155-.063.162.162,0,0,1,.1.031.6.6,0,0,1,.109.128A1.264,1.264,0,0,0,60,34.43a.812.812,0,0,0,1.143,0,.549.549,0,0,0,.143-.338Zm-.728-1.638a.7.7,0,0,0-.288.06.717.717,0,0,0-.229.156.741.741,0,0,0-.155.23.727.727,0,0,0,0,.567.7.7,0,0,0,.155.23.676.676,0,0,0,.229.157.7.7,0,0,0,.288.058.691.691,0,0,0,.283-.058.673.673,0,0,0,.231-.159.735.735,0,0,0,.155-.23.687.687,0,0,0,.058-.28.7.7,0,0,0-.058-.283.766.766,0,0,0-.155-.232.738.738,0,0,0-.231-.156A.691.691,0,0,0,60.558,32.21Z"/><path class="cls-1" d="M62.64,31.364a.251.251,0,0,1-.073.181.243.243,0,0,1-.182.074.25.25,0,0,1-.182-.074.256.256,0,0,1,.182-.436.245.245,0,0,1,.182.075A.249.249,0,0,1,62.64,31.364Zm-.471,2.522V32a.213.213,0,0,1,.063-.155.216.216,0,0,1,.306,0A.218.218,0,0,1,62.6,32v1.89a.219.219,0,0,1-.065.155.216.216,0,0,1-.369-.155Z"/><path class="cls-1" d="M64.942,33.888v-.041a1.144,1.144,0,0,1-.34.19,1.085,1.085,0,0,1-.389.068,1.164,1.164,0,1,1,1.163-1.163v.946a.21.21,0,0,1-.066.153.2.2,0,0,1-.151.064.216.216,0,0,1-.154-.064A.212.212,0,0,1,64.942,33.888Zm-.729-1.678a.707.707,0,0,0-.288.06.757.757,0,0,0-.23.156.794.794,0,0,0-.155.23.738.738,0,0,0,0,.567.745.745,0,0,0,.155.23.724.724,0,0,0,.519.216.7.7,0,0,0,.284-.058.688.688,0,0,0,.23-.159.756.756,0,0,0,.157-.23.719.719,0,0,0,.057-.28.73.73,0,0,0-.057-.283.789.789,0,0,0-.157-.232.757.757,0,0,0-.23-.156A.7.7,0,0,0,64.214,32.21Z"/><path class="cls-1" d="M66.134,33a.8.8,0,0,1-.274-.153h0a.517.517,0,0,1-.159-.376.51.51,0,0,1,.084-.286.755.755,0,0,1,.221-.217,1.013,1.013,0,0,1,.3-.138,1.167,1.167,0,0,1,.34-.049,1.151,1.151,0,0,1,.891.417.2.2,0,0,1,.044.131.21.21,0,0,1-.216.217.184.184,0,0,1-.114-.037,1.131,1.131,0,0,1-.09-.082.7.7,0,0,0-.515-.213.64.64,0,0,0-.479.185.121.121,0,0,0-.034.09.078.078,0,0,0,.055.078l.973.32a.805.805,0,0,1,.274.153h0a.527.527,0,0,1,.156.378.5.5,0,0,1-.083.284.76.76,0,0,1-.221.219,1.029,1.029,0,0,1-.3.138,1.222,1.222,0,0,1-.339.049,1.154,1.154,0,0,1-.893-.415.218.218,0,0,1-.046-.134.206.206,0,0,1,.064-.155.208.208,0,0,1,.151-.06.171.171,0,0,1,.118.041c.032.026.061.052.088.076a.7.7,0,0,0,.517.213.636.636,0,0,0,.477-.186.125.125,0,0,0,.031-.085.084.084,0,0,0-.056-.082Z"/><path class="cls-1" d="M71.29,33.662a.223.223,0,0,1,.157.066.215.215,0,0,1,.064.156.209.209,0,0,1-.064.155.215.215,0,0,1-.157.065H69.37a.241.241,0,0,1-.087-.017.238.238,0,0,1-.07-.047.189.189,0,0,1-.047-.07.212.212,0,0,1-.017-.087V31a.221.221,0,0,1,.017-.088.178.178,0,0,1,.047-.069.209.209,0,0,1,.157-.066h1.92a.219.219,0,0,1,.157.066.215.215,0,0,1,.064.157.213.213,0,0,1-.064.155.217.217,0,0,1-.157.063h-1.7v1H70.81a.223.223,0,0,1,.223.223.207.207,0,0,1-.065.155.21.21,0,0,1-.157.065H69.591v1Z"/><path class="cls-1" d="M72.842,31.777a1.121,1.121,0,0,1,.73.257V31a.207.207,0,0,1,.061-.155.212.212,0,0,1,.154-.062.215.215,0,0,1,.219.218v1.945a1.106,1.106,0,0,1-.342.821,1.164,1.164,0,1,1-.823-1.985Zm.73,1.164a.7.7,0,0,0-.058-.283.764.764,0,0,0-.155-.232.778.778,0,0,0-.232-.156.7.7,0,0,0-.285-.06.707.707,0,0,0-.286.06.744.744,0,0,0-.231.156.757.757,0,0,0-.154.23.739.739,0,0,0,0,.567.712.712,0,0,0,.154.23.7.7,0,0,0,.231.157.708.708,0,0,0,.286.058.724.724,0,0,0,.518-.218.733.733,0,0,0,.155-.23A.687.687,0,0,0,73.572,32.941Z"/><path class="cls-1" d="M76.288,34.1a.209.209,0,0,1-.153-.062.216.216,0,0,1-.064-.151,1.1,1.1,0,0,1-.3.163,1.131,1.131,0,0,1-.347.051A1.043,1.043,0,0,1,75,34.018a1.119,1.119,0,0,1-.578-.578,1.039,1.039,0,0,1-.085-.42V31.993a.2.2,0,0,1,.064-.152.209.209,0,0,1,.153-.063.212.212,0,0,1,.154.063.208.208,0,0,1,.064.152V33.02a.66.66,0,0,0,.049.253.685.685,0,0,0,.141.206.672.672,0,0,0,.206.141.637.637,0,0,0,.255.051.62.62,0,0,0,.25-.051.668.668,0,0,0,.349-.347.632.632,0,0,0,.051-.253V31.993a.2.2,0,0,1,.064-.152.21.21,0,0,1,.155-.063.218.218,0,0,1,.216.216v1.895a.209.209,0,0,1-.064.153A.212.212,0,0,1,76.288,34.1Z"/><path class="cls-1" d="M78.6,33.446a.207.207,0,0,1,.214.216.213.213,0,0,1-.068.158,1.163,1.163,0,0,1-1.922-.879,1.165,1.165,0,0,1,1.165-1.164,1.106,1.106,0,0,1,.757.282.208.208,0,0,1,.076.166.213.213,0,0,1-.215.217.222.222,0,0,1-.143-.051.771.771,0,0,0-.223-.136.711.711,0,0,0-.253-.046.732.732,0,0,0-.284.058.792.792,0,0,0-.234.157.742.742,0,0,0-.155.232.744.744,0,0,0,0,.569.742.742,0,0,0,.155.231.75.75,0,0,0,.234.155.714.714,0,0,0,.284.058.757.757,0,0,0,.253-.044.708.708,0,0,0,.22-.136A.232.232,0,0,1,78.6,33.446Z"/><path class="cls-1" d="M81.051,33.888v-.041a1.131,1.131,0,0,1-.34.19,1.083,1.083,0,0,1-.388.068,1.164,1.164,0,1,1,1.162-1.163v.946a.207.207,0,0,1-.062.153.212.212,0,0,1-.153.064.218.218,0,0,1-.155-.064A.212.212,0,0,1,81.051,33.888Zm-.727-1.678a.718.718,0,0,0-.289.06.794.794,0,0,0-.23.156.817.817,0,0,0-.155.23.752.752,0,0,0,0,.567.765.765,0,0,0,.155.23.744.744,0,0,0,.23.157.719.719,0,0,0,.289.058.706.706,0,0,0,.284-.058.738.738,0,0,0,.233-.159.763.763,0,0,0,.153-.23.687.687,0,0,0,.058-.28.7.7,0,0,0-.058-.283.8.8,0,0,0-.153-.232.817.817,0,0,0-.233-.156A.7.7,0,0,0,80.323,32.21Z"/><path class="cls-1" d="M83.587,33.446a.211.211,0,0,1,.157.061.215.215,0,0,1,.058.155.218.218,0,0,1-.066.158,1.163,1.163,0,1,1,0-1.761.22.22,0,0,1,.013.319.205.205,0,0,1-.153.063.224.224,0,0,1-.143-.051.817.817,0,0,0-.221-.136.73.73,0,0,0-.539.012.749.749,0,0,0-.391.389.756.756,0,0,0,0,.569.752.752,0,0,0,.158.231.737.737,0,0,0,.517.213.675.675,0,0,0,.474-.18A.223.223,0,0,1,83.587,33.446Z"/><path class="cls-1" d="M84.732,31.364a.245.245,0,0,1-.075.181.256.256,0,0,1-.36,0,.257.257,0,0,1,0-.361.255.255,0,0,1,.436.181Zm-.472,2.522V32a.216.216,0,0,1,.217-.219.21.21,0,0,1,.152.063A.227.227,0,0,1,84.7,32v1.89a.229.229,0,0,1-.065.155.213.213,0,0,1-.152.064.217.217,0,0,1-.153-.064A.214.214,0,0,1,84.261,33.886Z"/><path class="cls-1" d="M87.469,32.941a1.111,1.111,0,0,1-.34.821,1.129,1.129,0,0,1-.824.342,1.164,1.164,0,0,1,0-2.327,1.128,1.128,0,0,1,.824.34,1.123,1.123,0,0,1,.34.824ZM86.3,32.21a.685.685,0,0,0-.284.06.723.723,0,0,0-.386.387.716.716,0,0,0,0,.567.729.729,0,0,0,.67.446.7.7,0,0,0,.285-.058.692.692,0,0,0,.231-.159.772.772,0,0,0,.157-.23.718.718,0,0,0,.056-.28.729.729,0,0,0-.056-.283.806.806,0,0,0-.157-.232.761.761,0,0,0-.231-.156A.7.7,0,0,0,86.3,32.21Z"/><path class="cls-1" d="M88.233,31.991a1.081,1.081,0,0,1,1.065-.129,1.14,1.14,0,0,1,.345.232,1.064,1.064,0,0,1,.237.343,1.043,1.043,0,0,1,.087.425v1.024a.218.218,0,0,1-.062.155.214.214,0,0,1-.151.064.21.21,0,0,1-.155-.064.213.213,0,0,1-.065-.155V32.862a.633.633,0,0,0-.191-.457.663.663,0,0,0-.458-.2.639.639,0,0,0-.251.051.667.667,0,0,0-.208.141.636.636,0,0,0-.141.209.624.624,0,0,0-.051.252v1.024a.207.207,0,0,1-.064.155.213.213,0,0,1-.153.064.216.216,0,0,1-.154-.064.213.213,0,0,1-.062-.155V32a.213.213,0,0,1,.216-.219.21.21,0,0,1,.153.063A.2.2,0,0,1,88.233,31.991Z"/><path class="cls-1" d="M92.188,33.888v-.041a1.163,1.163,0,0,1-.339.19,1.1,1.1,0,0,1-.392.068,1.165,1.165,0,0,1-1.161-1.163,1.126,1.126,0,0,1,.341-.824,1.112,1.112,0,0,1,.82-.34,1.157,1.157,0,0,1,1.164,1.164v.946a.207.207,0,0,1-.062.153.217.217,0,0,1-.307,0A.208.208,0,0,1,92.188,33.888Zm-.731-1.678a.692.692,0,0,0-.284.06.732.732,0,0,0-.23.156.733.733,0,0,0-.155.8.7.7,0,0,0,.155.23.724.724,0,0,0,.515.216.7.7,0,0,0,.286-.058.677.677,0,0,0,.232-.159.749.749,0,0,0,.155-.23.72.72,0,0,0,.058-.28.731.731,0,0,0-.058-.283.781.781,0,0,0-.155-.232.742.742,0,0,0-.232-.156A.7.7,0,0,0,91.456,32.21Z"/><path class="cls-1" d="M93.542,31.364a.251.251,0,0,1-.073.181.256.256,0,0,1-.182.074.243.243,0,0,1-.182-.074.255.255,0,0,1,0-.361.245.245,0,0,1,.182-.075.258.258,0,0,1,.182.075A.249.249,0,0,1,93.542,31.364Zm-.473,2.522V32a.217.217,0,0,1,.37-.155A.227.227,0,0,1,93.5,32v1.89a.228.228,0,0,1-.064.155.217.217,0,0,1-.37-.155Z"/><path class="cls-1" d="M94.374,33a.811.811,0,0,1-.273-.153h0a.523.523,0,0,1-.158-.376.51.51,0,0,1,.085-.286.77.77,0,0,1,.219-.217,1.023,1.023,0,0,1,.306-.138,1.171,1.171,0,0,1,1.23.368.2.2,0,0,1,.043.131.211.211,0,0,1-.061.155.216.216,0,0,1-.155.062A.174.174,0,0,1,95.5,32.5a1.152,1.152,0,0,1-.092-.082.7.7,0,0,0-.515-.213.632.632,0,0,0-.477.185.121.121,0,0,0-.033.09.074.074,0,0,0,.054.078l.971.32a.782.782,0,0,1,.275.153h0a.522.522,0,0,1,.158.378.484.484,0,0,1-.085.284.729.729,0,0,1-.219.219,1.064,1.064,0,0,1-.3.138,1.216,1.216,0,0,1-.339.049A1.147,1.147,0,0,1,94,33.69a.218.218,0,0,1-.046-.134.21.21,0,0,1,.061-.155.22.22,0,0,1,.155-.06.166.166,0,0,1,.116.041,1.016,1.016,0,0,1,.087.076.711.711,0,0,0,.518.213.641.641,0,0,0,.48-.186.129.129,0,0,0,.03-.085.085.085,0,0,0-.057-.082Z"/><path class="cls-1" d="M99.169,33.449a.208.208,0,0,1,.155.063.2.2,0,0,1,.063.153.208.208,0,0,1-.064.155,1.163,1.163,0,1,1-.76-2.043,1.132,1.132,0,0,1,.824.34,1.123,1.123,0,0,1,.34.824.206.206,0,0,1-.065.153.211.211,0,0,1-.153.062H97.861a.758.758,0,0,0,.1.208.722.722,0,0,0,.6.306.662.662,0,0,0,.25-.043.689.689,0,0,0,.214-.122A.223.223,0,0,1,99.169,33.449Zm.095-.725a.706.706,0,0,0-.1-.208A.8.8,0,0,0,99,32.355a.743.743,0,0,0-.205-.106.772.772,0,0,0-.228-.038.747.747,0,0,0-.436.145.74.74,0,0,0-.161.161.755.755,0,0,0-.1.208Z"/><path class="cls-1" d="M101.727,32.256a.856.856,0,0,1-.214-.291.815.815,0,0,1-.06-.314.866.866,0,0,1,.075-.369.877.877,0,0,1,.225-.294h0a.828.828,0,0,1,.564-.21.9.9,0,0,1,.206.026.87.87,0,0,1,.2.08.821.821,0,0,1,.181.133.865.865,0,0,1,.15.185.228.228,0,0,1,.033.117.215.215,0,0,1-.019.089.2.2,0,0,1-.045.068.28.28,0,0,1-.07.048.243.243,0,0,1-.087.016.178.178,0,0,1-.134-.047.459.459,0,0,1-.049-.056.713.713,0,0,1-.051-.067.3.3,0,0,0-.136-.109.477.477,0,0,0-.186-.036.351.351,0,0,0-.153.033.5.5,0,0,0-.135.086.527.527,0,0,0-.093.135.375.375,0,0,0-.036.165.347.347,0,0,0,.089.253.678.678,0,0,0,.3.155,1.461,1.461,0,0,1,.572.286,1.064,1.064,0,0,1,.284.359.965.965,0,0,1,.073.373.979.979,0,0,1-.359.787h0a.978.978,0,0,1-.655.247,1.049,1.049,0,0,1-.244-.031,1.135,1.135,0,0,1-.237-.086,1.2,1.2,0,0,1-.212-.147.959.959,0,0,1-.17-.2.212.212,0,0,1-.044-.134.228.228,0,0,1,.016-.087.206.206,0,0,1,.046-.07.2.2,0,0,1,.069-.046.244.244,0,0,1,.088-.016.2.2,0,0,1,.185.1.578.578,0,0,0,.5.271.52.52,0,0,0,.222-.046.586.586,0,0,0,.184-.126.606.606,0,0,0,.124-.185.568.568,0,0,0,.048-.23.526.526,0,0,0-.046-.214.539.539,0,0,0-.162-.2,1.213,1.213,0,0,0-.386-.178A1.17,1.17,0,0,1,101.727,32.256Z"/><path class="cls-1" d="M105.834,32.941a1.108,1.108,0,0,1-.34.821,1.162,1.162,0,0,1-1.647,0,1.164,1.164,0,0,1,1.647-1.646,1.165,1.165,0,0,1,.255.376A1.2,1.2,0,0,1,105.834,32.941Zm-1.164-.731a.691.691,0,0,0-.284.06.711.711,0,0,0-.231.156.726.726,0,0,0-.155.23.739.739,0,0,0,0,.567.684.684,0,0,0,.155.23.671.671,0,0,0,.231.157.692.692,0,0,0,.284.058.724.724,0,0,0,.519-.218.769.769,0,0,0,.155-.23.719.719,0,0,0,.057-.28.73.73,0,0,0-.057-.283.8.8,0,0,0-.155-.232.778.778,0,0,0-.232-.156A.7.7,0,0,0,104.67,32.21Z"/><path class="cls-1" d="M107.938,33.446a.211.211,0,0,1,.155.061.209.209,0,0,1,.062.155.225.225,0,0,1-.068.158,1.163,1.163,0,1,1,0-1.761.224.224,0,0,1,.013.319.2.2,0,0,1-.155.063.225.225,0,0,1-.142-.051.747.747,0,0,0-.223-.136.7.7,0,0,0-.253-.046.731.731,0,0,0-.284.058.846.846,0,0,0-.234.157.762.762,0,0,0-.156.232.732.732,0,0,0,0,.569.762.762,0,0,0,.156.231.8.8,0,0,0,.234.155.714.714,0,0,0,.284.058.748.748,0,0,0,.253-.044.731.731,0,0,0,.223-.136A.215.215,0,0,1,107.938,33.446Z"/><path class="cls-1" d="M109.083,31.364a.252.252,0,0,1-.075.181.246.246,0,0,1-.182.074.255.255,0,1,1,.257-.255Zm-.473,2.522V32a.215.215,0,0,1,.216-.219.208.208,0,0,1,.152.063.228.228,0,0,1,.066.155v1.89a.23.23,0,0,1-.066.155.211.211,0,0,1-.152.064.215.215,0,0,1-.216-.219Z"/><path class="cls-1" d="M111.384,33.888v-.041a1.171,1.171,0,0,1-.338.19,1.11,1.11,0,0,1-.391.068,1.164,1.164,0,1,1,1.163-1.163v.946a.21.21,0,0,1-.066.153.2.2,0,0,1-.151.064.212.212,0,0,1-.153-.064A.209.209,0,0,1,111.384,33.888Zm-.728-1.678a.71.71,0,0,0-.288.06.781.781,0,0,0-.23.156.838.838,0,0,0-.155.23.75.75,0,0,0,0,.567.783.783,0,0,0,.155.23.733.733,0,0,0,.23.157.711.711,0,0,0,.288.058.693.693,0,0,0,.284-.058.716.716,0,0,0,.232-.159.769.769,0,0,0,.155-.23.686.686,0,0,0,.057-.28.7.7,0,0,0-.057-.283.8.8,0,0,0-.155-.232.79.79,0,0,0-.232-.156A.692.692,0,0,0,110.655,32.21Z"/><path class="cls-1" d="M112.739,31.364a.252.252,0,0,1-.075.181.247.247,0,0,1-.18.074.255.255,0,1,1,0-.511.248.248,0,0,1,.18.075A.251.251,0,0,1,112.739,31.364Zm-.473,2.522V32a.213.213,0,0,1,.064-.155.216.216,0,0,1,.306,0A.232.232,0,0,1,112.7,32v1.89a.233.233,0,0,1-.065.155.216.216,0,0,1-.306,0A.214.214,0,0,1,112.267,33.886Z"/><path class="cls-1" d="M113.572,33a.852.852,0,0,1-.276-.153h0a.522.522,0,0,1-.157-.376.5.5,0,0,1,.085-.286.775.775,0,0,1,.22-.217,1.014,1.014,0,0,1,.306-.138,1.168,1.168,0,0,1,1.228.368.2.2,0,0,1,.044.131.209.209,0,0,1-.216.217.184.184,0,0,1-.114-.037c-.029-.024-.061-.053-.09-.082a.7.7,0,0,0-.515-.213.64.64,0,0,0-.478.185.129.129,0,0,0-.033.09.076.076,0,0,0,.054.078l.973.32a.8.8,0,0,1,.274.153h0a.529.529,0,0,1,.158.378.5.5,0,0,1-.085.284.754.754,0,0,1-.219.219,1.057,1.057,0,0,1-.3.138,1.21,1.21,0,0,1-.338.049,1.147,1.147,0,0,1-.891-.415.219.219,0,0,1-.048-.134.211.211,0,0,1,.063-.155.218.218,0,0,1,.155-.06.169.169,0,0,1,.116.041c.032.026.061.052.088.076a.707.707,0,0,0,.517.213.64.64,0,0,0,.479-.186.135.135,0,0,0,.03-.085.087.087,0,0,0-.055-.082Z"/><path class="cls-1" d="M46.241,16.142a5.012,5.012,0,0,1-1.287-1.73,4.894,4.894,0,0,1-.364-1.88,5.137,5.137,0,0,1,.46-2.2A5.2,5.2,0,0,1,46.4,8.571H46.39a4.933,4.933,0,0,1,3.351-1.24,5.079,5.079,0,0,1,1.24.155,4.97,4.97,0,0,1,1.2.472,5.119,5.119,0,0,1,1.077.786,5.592,5.592,0,0,1,.9,1.105,1.4,1.4,0,0,1,.185.709,1.335,1.335,0,0,1-.1.52,1.282,1.282,0,0,1-.7.7,1.4,1.4,0,0,1-.517.1,1.208,1.208,0,0,1-.439-.075,1.124,1.124,0,0,1-.349-.21,2.364,2.364,0,0,1-.3-.316c-.095-.119-.2-.259-.3-.417a1.814,1.814,0,0,0-.812-.65,2.791,2.791,0,0,0-1.111-.218,2.294,2.294,0,0,0-.919.191A2.642,2.642,0,0,0,47.439,11.5a2.29,2.29,0,0,0-.217.994A2.1,2.1,0,0,0,47.749,14a4.094,4.094,0,0,0,1.817.924,8.774,8.774,0,0,1,3.426,1.713,6.218,6.218,0,0,1,1.687,2.148,5.613,5.613,0,0,1,.446,2.221,5.874,5.874,0,0,1-2.145,4.715h.013a5.89,5.89,0,0,1-3.922,1.465,6.057,6.057,0,0,1-1.465-.18,6.4,6.4,0,0,1-1.407-.528,6.1,6.1,0,0,1-1.267-.867,5.858,5.858,0,0,1-1.024-1.181,1.246,1.246,0,0,1-.26-.792,1.359,1.359,0,0,1,.1-.517,1.3,1.3,0,0,1,.694-.7,1.355,1.355,0,0,1,.521-.1,1.216,1.216,0,0,1,1.106.608,3.463,3.463,0,0,0,1.3,1.216,3.581,3.581,0,0,0,1.688.41,3.216,3.216,0,0,0,1.335-.281,3.483,3.483,0,0,0,1.827-1.859,3.406,3.406,0,0,0,.273-1.36,2.925,2.925,0,0,0-1.233-2.476,6.927,6.927,0,0,0-2.3-1.061A6.865,6.865,0,0,1,46.241,16.142Z"/><path class="cls-1" d="M68.182,25.9v-.247a7.156,7.156,0,0,1-2.024,1.143,6.811,6.811,0,0,1-2.332.4,6.945,6.945,0,0,1-6.949-6.949,6.949,6.949,0,0,1,13.9,0V25.9a1.3,1.3,0,0,1-2.594,0ZM63.826,15.882a4.246,4.246,0,0,0-1.713.347,4.45,4.45,0,0,0-1.378.938,4.524,4.524,0,0,0-.925,1.383,4.364,4.364,0,0,0,0,3.377,4.5,4.5,0,0,0,.925,1.383,4.414,4.414,0,0,0,1.378.938,4.35,4.35,0,0,0,3.413,0,4.413,4.413,0,0,0,1.383-.942,4.505,4.505,0,0,0,.931-1.385,4.308,4.308,0,0,0,0-3.363,4.414,4.414,0,0,0-2.314-2.327A4.213,4.213,0,0,0,63.826,15.882Z"/><path class="cls-1" d="M75.354,14.827a6.6,6.6,0,0,1,4.357-1.539,7.051,7.051,0,0,1,6.441,4.273,6.946,6.946,0,0,1,.509,2.676,6.648,6.648,0,0,1-2.033,4.914,6.951,6.951,0,0,1-9.829,0,6.691,6.691,0,0,1-2.038-4.914V8.622a1.254,1.254,0,0,1,1.293-1.291,1.275,1.275,0,0,1,.923.366,1.219,1.219,0,0,1,.378.925Zm4.357,9.768a4.221,4.221,0,0,0,1.7-.349,4.408,4.408,0,0,0,2.313-2.327,4.308,4.308,0,0,0,0-3.363,4.408,4.408,0,0,0-2.312-2.327,4.375,4.375,0,0,0-3.413,0,4.422,4.422,0,0,0-1.379.938,4.475,4.475,0,0,0-.925,1.383,4.341,4.341,0,0,0,0,3.377,4.451,4.451,0,0,0,.925,1.383A4.387,4.387,0,0,0,78,24.246,4.235,4.235,0,0,0,79.711,24.595Z"/><path class="cls-1" d="M99.218,23.277a1.254,1.254,0,0,1,1.291,1.291,1.291,1.291,0,0,1-.372.932,6.949,6.949,0,0,1-11.489-5.263,6.974,6.974,0,0,1,13.388-2.676,6.928,6.928,0,0,1,.511,2.676,1.227,1.227,0,0,1-.38.925,1.283,1.283,0,0,1-.923.366H91.414a4.181,4.181,0,0,0,.621,1.245,4.236,4.236,0,0,0,.961.97,4.455,4.455,0,0,0,1.216.626,4.275,4.275,0,0,0,1.383.226,4.343,4.343,0,0,0,1.5-.25,4.118,4.118,0,0,0,1.267-.744A1.349,1.349,0,0,1,99.218,23.277Zm.561-4.331a4.16,4.16,0,0,0-.627-1.247,4.512,4.512,0,0,0-.97-.968,4.371,4.371,0,0,0-1.216-.626,4.225,4.225,0,0,0-1.371-.224,4.3,4.3,0,0,0-1.378.224,4.506,4.506,0,0,0-1.228.626,4.339,4.339,0,0,0-.969.968,3.977,3.977,0,0,0-.606,1.247Z"/><path class="cls-1" d="M107.076,14.579v.248a7,7,0,0,1,2.022-1.142,6.749,6.749,0,0,1,2.332-.4,10.62,10.62,0,0,1,1.175.073,5.323,5.323,0,0,1,1.154.267,2.454,2.454,0,0,1,.874.528,1.154,1.154,0,0,1,.347.869,1.214,1.214,0,0,1-.1.507,1.416,1.416,0,0,1-.279.418,1.24,1.24,0,0,1-.409.278,1.3,1.3,0,0,1-.51.1,1.356,1.356,0,0,1-.546-.139,4.622,4.622,0,0,0-1.7-.309,4.287,4.287,0,0,0-1.7.34,4.41,4.41,0,0,0-1.386.932,4.341,4.341,0,0,0-.928,1.384,4.231,4.231,0,0,0-.342,1.7V25.9a1.246,1.246,0,0,1-.38.913,1.233,1.233,0,0,1-.911.378,1.289,1.289,0,0,1-1.3-1.291V14.579a1.245,1.245,0,0,1,.377-.914,1.262,1.262,0,0,1,.926-.377,1.292,1.292,0,0,1,1.291,1.291Z"/><path class="cls-2" d="M37.3.841H4.951A1.991,1.991,0,0,0,2.965,2.825v32.35a1.991,1.991,0,0,0,1.986,1.984H37.3a1.991,1.991,0,0,0,1.985-1.984V2.825A1.991,1.991,0,0,0,37.3.841Zm-.2,18.215a6.406,6.406,0,0,1-11.213,4.21,6.408,6.408,0,1,1,1.6-4.238v.028h.007a3.206,3.206,0,0,0,6.411,0H33.89l0,0A12.828,12.828,0,1,0,28.976,29.14a1.588,1.588,0,0,1,1.121-.463,1.6,1.6,0,0,1,.811,2.984A16.019,16.019,0,1,1,37.1,19.017c0,.013,0,.025,0,.039Zm-13.861,9.6A2.136,2.136,0,1,1,21.1,26.523,2.137,2.137,0,0,1,23.235,28.659ZM18.964,9.428A2.136,2.136,0,1,1,21.1,11.566,2.135,2.135,0,0,1,18.964,9.428Z"/><path class="cls-2" d="M21.09,15.849a3.206,3.206,0,1,0,3.2,3.435c0-.075,0-.15-.007-.227H24.3A3.207,3.207,0,0,0,21.09,15.849Z"/></svg>