<svg id="projeto" xmlns="http://www.w3.org/2000/svg" viewBox="0 0 354.829 416"><defs><style>.cls-1{fill:#546b2f;}.cls-1,.cls-10,.cls-11,.cls-12,.cls-13,.cls-14,.cls-15,.cls-16,.cls-17,.cls-19,.cls-2,.cls-21,.cls-3,.cls-4,.cls-5,.cls-6,.cls-7,.cls-8,.cls-9{fill-rule:evenodd;}.cls-2{fill:#e0ac7e;}.cls-3{fill:#677b46;}.cls-4{fill:#f2c196;}.cls-5{fill:#ebb688;}.cls-18,.cls-6{fill:#353333;}.cls-7{fill:#292929;}.cls-8{fill:#373435;}.cls-9{fill:#4a6322;}.cls-10{fill:#435724;}.cls-11{fill:#676463;}.cls-12,.cls-20{fill:#282828;}.cls-13{fill:#efce7f;}.cls-14{fill:#ecc364;}.cls-15{fill:#424d2c;}.cls-16{fill:#8a8683;}.cls-17,.cls-22{fill:#66401a;}.cls-19{fill:#3d3939;}.cls-21{fill:#9c9994;}</style></defs><title>passaros</title><path class="cls-1" d="M116.167,117c24.2,2.763,49,38.724,53.025,55.779,1.758,7.462-13.5,10.179-22.065,6.959-13.822-5.182-18.176-17.948-18.371-15.631-.028.288-.093,1.265-.261,3.257,2.41,8.578,5.983,32.248-4.843,43.292-5.727,5.834-21.043,3.89-30.064,5.88V121.806Z"/><path class="cls-2" d="M112.652,117.358H93.588V98.694h12.482a19.571,19.571,0,0,0-1.579,6.829C105.183,112.967,108.484,116.874,112.652,117.358Z"/><path class="cls-1" d="M123.382,210.019c22.214,52.764,5.392,51.369,4.633,90.632l1.5,13.454c1.433,8.234-2.033,36.677-5.806,37.347l-6.057,19.39c-1.06,4.187-.716,6.895.67,8.523l13.365,9.351c3.81,2.252,8.267.716,10.193,1.879,1.782,1.079,3.033,2.856.781,4.429H109.7c-3.305-.13-6.022-.2-7.585-.121-3.284-1.982-3.733-4.922-1.67-8.69l4.008-13.37c.446-7.248-.189-11.016-1.528-17.827-.356-1.089-.077-2.614-1.008-3.387-9.027-7.49-1.051-44.567-2.035-59.016.726,3.666-4.687-25.457-6.711-32.258,0,0,.414-43.674.416-45.8,12.556-1.247,21.183-6.606,28.831-12.989l.968,8.458Z"/><path class="cls-3" d="M74.5,115.916c-.786-.651-2.1.688-3.436,1.089-29.509.074-48.859,55.928-49.522,75.253-.261,7.657,10.869,9.658,19.434,6.448,13.819-5.192,16.5-30.434,16.694-28.118,1.6,19.139-8.488,28.583,5.888,39.432,6.866,5.182,20.539,4.475,30.027,6.569v-84.9Z"/><path class="cls-2" d="M81.776,100.48a19.967,19.967,0,0,1,.909,5.043c-2.524,7.016-2.961,8.532-8.046,10.346v1.489H93.588V100.48Z"/><path class="cls-4" d="M83.825,64.343c-3.361-.661-6.578,2.782-7.18,6.15a71.659,71.659,0,0,0-1.084,9.435c-.091-.019.4-.028-.272-.028s-2.887.5-2.782,3.443c.079,2.2,1.991,8.6,4.51,7.546,3.642,9.76,8.546,15.268,16.571,17.222.135-.261.2-.065.326-.14v-42.6A50.845,50.845,0,0,1,83.825,64.343Z"/><path class="cls-4" d="M83.809,64.836c-3.285-.651-6.427,2.717-7.016,6a69.925,69.925,0,0,0-1.059,9.23c-.091-.019.393-.019-.267-.019s-2.822.484-2.719,3.349c.074,2.158,1.945,8.411,4.408,7.378,3.559,9.546,8.355,14.933,16.2,16.841.13-.261.193-.065.316-.14V65.832A49.232,49.232,0,0,1,83.809,64.836Z"/><path class="cls-5" d="M103.218,64.836c3.284-.651,6.427,2.717,7.015,6a70.328,70.328,0,0,1,1.061,9.23c.088-.019-.4-.019.267-.019s2.819.484,2.717,3.349c-.075,2.158-1.945,8.411-4.406,7.378-3.61,9.677-8.479,15-16.517,16.841V65.832A49.218,49.218,0,0,0,103.218,64.836Z"/><path class="cls-3" d="M63.561,210.019c-22.214,52.764-5.394,51.369-4.634,90.632l-1.5,13.454c-1.431,8.234,2.031,36.677,5.8,37.347l6.059,19.39c1.063,4.187.721,6.895-.667,8.523l-13.37,9.351c-3.81,2.252-8.262.716-10.193,1.879-1.779,1.079-3.028,2.856-.782,4.429H77.242c3.306-.13,6.022-.2,7.583-.121,3.287-1.982,3.733-4.922,1.67-8.69l-4.008-13.37c-.444-7.248.191-11.016,1.531-17.827.353-1.089.079-2.614,1-3.387,9.03-7.49,1.054-44.567,2.036-59.016-.726,3.666,4.536-25.457,6.559-32.258,0,0-.26-43.674-.262-45.8C80.8,213.3,72.167,207.944,64.524,201.562l-.965,8.458Z"/><path class="cls-6" d="M63.6,209.656c-1.417,3.526-2.6,6.336-3.659,9.379,4.613,3.442,14.538,6.28,33.421,5.536l.3-9.593C77.989,215.639,68.708,213.424,63.6,209.656Z"/><path class="cls-7" d="M63.228,351.452l3.517,18.469c1.061,4.187-.1,7.592-1.484,9.211l-9.377,4.912c-2.233,1.786-10.574,2.856-12.5,4.02-1.779,1.079-1.351,5.387.9,6.959H77.242c3.306-.13,6.022-.2,7.583-.121,3.287-1.982,3.936-7.983,1.873-11.751l-2.68-10.272c-.1-1.638.754-20.311,1.054-21.428Z"/><path class="cls-8" d="M42.447,392.084a5.005,5.005,0,0,0,1.828,2.94H77.242c3.306-.13,6.022-.2,7.583-.121a5.885,5.885,0,0,0,2.3-2.819Z"/><path class="cls-1" d="M52.845,256.6l8.522-1.4a2.032,2.032,0,0,1,2.319,1.674l4.643,28.415a2.026,2.026,0,0,1-1.666,2.317l-8.522,1.386a2.014,2.014,0,0,1-2.317-1.665l-4.648-28.415A2.022,2.022,0,0,1,52.845,256.6Z"/><path class="cls-9" d="M52.4,255.526l9.418-1.535a2.231,2.231,0,0,1,2.563,1.843l1.123,6.885-13.866,1.972-1.081-6.606A2.234,2.234,0,0,1,52.4,255.526Z"/><path class="cls-9" d="M136.45,255.954l-8.523-1.387a2.02,2.02,0,0,0-2.317,1.666l-4.648,28.415a2.02,2.02,0,0,0,1.665,2.317l8.523,1.4a2.028,2.028,0,0,0,2.321-1.665l4.643-28.415A2.034,2.034,0,0,0,136.45,255.954Z"/><path class="cls-10" d="M136.9,254.893l-9.416-1.544a2.246,2.246,0,0,0-2.568,1.842l-1.126,6.885,13.873,1.982,1.079-6.606A2.237,2.237,0,0,0,136.9,254.893Z"/><path class="cls-11" d="M64,356.412a.893.893,0,0,1,0-1.786h5.278a.893.893,0,1,1,0,1.786Z"/><path class="cls-11" d="M64.9,360.385a.9.9,0,0,1,0-1.8h5.278a.9.9,0,0,1,0,1.8Z"/><path class="cls-11" d="M65.4,364.376a.9.9,0,0,1,0-1.8h5.278a.9.9,0,0,1,0,1.8Z"/><path class="cls-11" d="M66.294,368.34a.893.893,0,0,1,0-1.786h5.278a.893.893,0,1,1,0,1.786Z"/><path class="cls-7" d="M123.6,351.4l-3.517,18.478c-1.065,4.178.1,7.583,1.484,9.211L130.942,384c2.233,1.786,10.57,2.856,12.5,4.019,1.782,1.07,1.354,5.378-.893,6.95H109.582c-3.305-.13-6.024-.2-7.585-.111-3.284-1.991-3.933-7.983-1.87-11.751l2.68-10.272c.1-1.637-.752-20.32-1.054-21.437Z"/><path class="cls-8" d="M144.377,392.038a4.983,4.983,0,0,1-1.828,2.931H109.582c-3.305-.13-6.024-.2-7.585-.111a5.882,5.882,0,0,1-2.293-2.819Z"/><path class="cls-11" d="M122.819,356.365a.893.893,0,0,0,0-1.786h-5.275a.893.893,0,0,0,0,1.786Z"/><path class="cls-11" d="M121.926,360.329a.893.893,0,0,0,0-1.786h-5.275a.893.893,0,0,0,0,1.786Z"/><path class="cls-11" d="M121.424,364.32a.893.893,0,0,0,0-1.786h-5.276a.893.893,0,1,0,0,1.786Z"/><path class="cls-11" d="M120.531,368.284a.893.893,0,0,0,0-1.786h-5.276a.893.893,0,0,0,0,1.786Z"/><path class="cls-12" d="M123.759,210.112c1.419,3.526,2.117,5.462,3.173,8.5-4.61,3.442-14.684,6.7-33.57,5.955l.3-9.593C109.277,215.015,118.651,213.88,123.759,210.112Z"/><path class="cls-1" d="M57.671,170.588h0c13.221-4.81,7.5-40.5,6.427-52.745l.04-.01L71.706,117l22.521,14.682v84.9c-9.488-2.094-23.991-1.172-30.86-6.355C50.628,200.622,57.017,186.889,57.671,170.588Z"/><path class="cls-1" d="M93.588,113.432c-5.683-.707-9.786-3.1-12.377-7.09A28.064,28.064,0,0,1,71.067,117c4.254,8.02,11.9,13.649,22.521,17.194Z"/><path class="cls-9" d="M129.965,170.532c-13.649-1.786-5.871-43.86-5.1-52.69l-.037-.01L117.265,117,93.588,131.687v84.9c9.488-2.094,24.314-1.386,31.181-6.569C137.511,200.408,130.621,186.824,129.965,170.532Z"/><path class="cls-9" d="M93.588,113.432c5.683-.707,9.788-3.1,12.379-7.09A28.046,28.046,0,0,0,116.111,117c-4.256,8.02-11.9,13.649-22.523,17.194Z"/><path class="cls-13" d="M87.377,213.9h12.27a1.587,1.587,0,0,1,1.577,1.582v9.313a1.581,1.581,0,0,1-1.577,1.582H87.377a1.583,1.583,0,0,1-1.577-1.582v-9.313A1.589,1.589,0,0,1,87.377,213.9Z"/><path class="cls-14" d="M93.588,213.9h6.06a1.579,1.579,0,0,1,1.577,1.582v9.313a1.579,1.579,0,0,1-1.577,1.582h-6.06Z"/><path class="cls-3" d="M93.588,151.672H76.268a2.973,2.973,0,0,0-2.968,2.968v47.368a2.973,2.973,0,0,0,2.968,2.968h17.32Z"/><path class="cls-1" d="M93.588,151.672h17.32a2.975,2.975,0,0,1,2.971,2.968v47.368a2.975,2.975,0,0,1-2.971,2.968H93.588Z"/><path class="cls-15" d="M71.751,83.324h3.3l1.416-9.3a3.116,3.116,0,0,1,3.275-3.257H93.462V67.516l-20.574-.028C70.185,69.721,70.467,75.694,71.751,83.324Z"/><path class="cls-1" d="M93.025,45c.221,0,.44.009.658.009V67.5H71.137q-.073-.851-.074-1.731C71.062,54.3,80.894,45,93.025,45Z"/><path class="cls-15" d="M114.957,83.333h-3.3l-1.417-9.295a3.113,3.113,0,0,0-3.273-3.257H93.246V67.525l20.577-.028C116.525,69.721,116.241,75.7,114.957,83.333Z"/><path class="cls-9" d="M93.683,45.009c-.221,0-.437.01-.658.01V67.507h22.546c.047-.568.075-1.145.075-1.731C115.646,54.313,105.813,45.009,93.683,45.009Z"/><path class="cls-3" d="M69.078,83.324h3.71l1.589-9.3a3.332,3.332,0,0,1,3.68-3.257H93.462L93.6,66.3c-7.5-.428-15.268.391-23.242,1.191C67.317,69.721,67.636,75.694,69.078,83.324Z"/><path class="cls-1" d="M117.632,83.333H113.92l-1.589-9.295a3.331,3.331,0,0,0-3.678-3.257H93.246l-.135-4.476c7.494-.419,15.266.391,23.242,1.191C119.391,69.721,119.07,75.7,117.632,83.333Z"/><path class="cls-16" d="M186.744,218.123l22.2,11.5a1.444,1.444,0,0,0,1.936-.614h0a1.448,1.448,0,0,0-.614-1.935l-22.2-11.5Z"/><path class="cls-7" d="M89.038,166.885c-2.5-.493-5.394,2.633-2.9,5.061l-.525.2a2.893,2.893,0,0,1-.709-4.289l-1.522-2.084.574-1.516Z"/><path class="cls-7" d="M69.413,149.263c-.14-.047,5.254,1.916,5.254,1.916l-2.5,7.6-5.173-1.107Z"/><path class="cls-17" d="M71.89,161.488A3.913,3.913,0,0,1,71,165.378l-9.465,9.853c.649,2.308,2.638,4.048,6.071,5.2l1.652-1.461a1.6,1.6,0,0,1,.393-2.2l8.171-7.751a3.421,3.421,0,0,1,3.029.186l3.489-4.755-10.16-5.22Z"/><rect class="cls-18" x="91.431" y="169.682" width="5.89" height="5.459" transform="translate(-102.126 176.828) rotate(-62.592)"/><path class="cls-6" d="M87.156,163.144l5.1,2.642a2.8,2.8,0,0,1,1.2,3.768l-2.233,4.308a2.8,2.8,0,0,1-3.769,1.191l-5.094-2.633a2.8,2.8,0,0,1-1.2-3.768l2.233-4.308a2.8,2.8,0,0,1,3.766-1.2Zm-.377.726a1.978,1.978,0,0,0-2.663.847l-2.233,4.308a1.991,1.991,0,0,0,.844,2.671l5.1,2.633a1.983,1.983,0,0,0,2.663-.837l2.236-4.317a1.986,1.986,0,0,0-.847-2.661Z"/><path class="cls-7" d="M97.451,169.741c-6.229,15.119-5.876,29.913,2.775,44.279L112.156,208c-6.066-10.989-6.566-21.651-2.547-32.062Z"/><path class="cls-19" d="M74.265,151.04c1.8-2.456,4.96-4.54,8.546-3.75l41.543,21.53L118.1,180.878,71.371,159.423S74.242,151.04,74.265,151.04Z"/><path class="cls-6" d="M74.265,151.04a10.961,10.961,0,0,1,.814-.977l46.5,24.1-3.48,6.718L71.371,159.423S74.242,151.04,74.265,151.04Z"/><path class="cls-17" d="M121.582,174.161l30.61,15.864-3.015,5.815L122.2,184.833c-2.642-1.042-4.066-2.354-4.094-3.954Z"/><polygon class="cls-17" points="152.193 190.024 132.077 179.604 134.799 174.347 154.914 184.777 152.193 190.024"/><rect class="cls-20" x="125.416" y="168.646" width="5.24" height="11.82" transform="translate(-85.867 207.85) rotate(-62.587)"/><path class="cls-12" d="M154.31,185.949l14.379,7.453c-.47,2.773-.214,5.415,2.373,7.583l-1.554,2.986-19.343-10.03Z"/><rect class="cls-18" x="179.44" y="197.252" width="2.913" height="21.86" transform="translate(-87.172 273.008) rotate(-62.606)"/><path class="cls-17" d="M171.062,200.985l-2.261,4.364c-1.121,2.27-.568,4.261,2.07,5.889l15.673,8.123,4.229-8.262-1.493-.772s-1.894,4.141-2.094,4.038l-13.937-7.22c-2.238-1.163-1.9-2.7-.716-5.35Z"/><path class="cls-21" d="M79.129,160.428a2.683,2.683,0,1,1,2.47-4.764l-.642,1.238a1.289,1.289,0,1,0-1.186,2.289Z"/><path class="cls-16" d="M79.129,160.428a2.683,2.683,0,1,0,2.47-4.764l-.642,1.238a1.289,1.289,0,1,1-1.186,2.289Z"/><path class="cls-17" d="M29.1,132.933,21.006,151.9c-.4,1.628.33,2.605,2.442,2.8l44.02,3.657,2.9-9.155-10.951-3.285c-1.97-.735-3.51-2.4-3.68-3.684Z"/><path class="cls-1" d="M150.7,167.583c-7.071,4.689-25.186,21.279-25.186,25.977,0,4.047-5.163,5.043-6.727,5.6l.037.046a77.574,77.574,0,0,1-8.711-.1l-4.833.019c-1.205-1.74-3.552-2.047-6.864-1.145l-4.91-3.712c-1.916-1.368-2.2,2.336-1.5,4.168l2.309,2.633c-1.421.046-1.207.093-2.3,1.851-.7,2.55.7,5.155,4.334,9.518a9.8,9.8,0,0,0,4.694,3.517c7.8.884,3.824.865,12.763-2.326l14.156-8.048c1.172-.344,2.275-1.21,3.466-1.089,11.137,1.051,40.771-24.33,37.757-31.709-.614-1.182-3.1-1.917-3.768-3.061Z"/><path class="cls-2" d="M125.638,193.43c-2.856,2.986-5.266,5.163-6.848,5.731l.037.046a77.63,77.63,0,0,1-8.713-.1l-4.831.019c-1.205-1.74-3.552-2.047-6.864-1.145l-4.91-3.712c-1.916-1.368-2.2,2.336-1.5,4.168l2.309,2.624c-1.423.056-1.207.1-2.3,1.861-.7,2.55.7,5.155,4.334,9.518a9.79,9.79,0,0,0,4.694,3.517c7.8.884,3.824.865,12.763-2.326l14.156-8.048c1.289-.381,2.559-.781,3.805-1.21Z"/><polygon class="cls-9" points="125.545 207.721 119.581 197.635 125.806 193.244 132.338 204.307 125.545 207.721"/><path class="cls-3" d="M37.553,202.808c7.288-4.177,27.492-19.3,27.173-21.958-.5-4.177,5.68-4.9,7.315-5.368l-.028-.056a83.853,83.853,0,0,1,8.683.67l4.822.307c1.091,1.8,3.412,2.27,6.775,1.591l4.655,4.029c1.826,1.489,2.349-2.2,1.77-4.066l-2.13-2.773c1.423.037,1.212-.019,2.414-1.7.856-2.494-.358-5.192-3.7-9.788a9.864,9.864,0,0,0-4.455-3.815c-7.723-1.4-3.759-1.107-12.886,1.489l-14.654,7.108c-1.377.307-2.771,1.479-4.066,1-9.09-3.322-36.877,12.979-37.693,22.777C21.133,197.217,25.137,206.521,37.553,202.808Z"/><path class="cls-5" d="M64.84,180.748c3.045-2.791,5.587-4.81,7.2-5.266l-.028-.056a83.9,83.9,0,0,1,8.683.67l4.822.307c1.091,1.8,3.412,2.27,6.775,1.591l4.657,4.029c1.824,1.489,2.347-2.2,1.767-4.066l-2.13-2.773c1.423.037,1.212-.019,2.412-1.7.858-2.494-.356-5.192-3.7-9.788a9.852,9.852,0,0,0-4.455-3.815c-7.723-1.386-3.759-1.107-12.889,1.489l-14.651,7.108c-1.314.288-2.605.614-3.875.949Z"/><polygon class="cls-1" points="65.936 166.429 71.22 176.868 64.726 180.85 58.927 169.388 65.936 166.429"/><path class="cls-1" d="M246.244,117c24.2,2.763,49,38.724,53.02,55.779,1.758,7.462-13.5,10.179-22.061,6.959-13.817-5.182-18.176-17.948-18.376-15.631-.023.288-.093,1.265-.256,3.257,2.41,8.578,5.983,32.248-4.843,43.292-5.727,5.834-21.046,3.89-30.066,5.88V121.806Z"/><path class="cls-2" d="M242.727,117.358H223.663V98.694h12.482a19.569,19.569,0,0,0-1.582,6.829C235.261,112.967,238.559,116.874,242.727,117.358Z"/><path class="cls-1" d="M253.46,210.019c22.213,52.764,5.392,51.369,4.633,90.632l1.5,13.454c1.432,8.234-2.028,36.677-5.8,37.347l-6.062,19.39c-1.06,4.187-.716,6.895.67,8.523l13.37,9.351c3.81,2.252,8.262.716,10.193,1.879,1.782,1.079,3.029,2.856.782,4.429h-32.97c-3.3-.13-6.02-.2-7.583-.121-3.284-1.982-3.731-4.922-1.67-8.69l4.01-13.37c.442-7.248-.191-11.016-1.531-17.827-.353-1.089-.074-2.614-1-3.387-9.03-7.49-1.051-44.567-2.037-59.016.726,3.666-4.685-25.457-6.708-32.258,0,0,.409-43.674.414-45.8,12.556-1.247,21.19-6.606,28.829-12.989l.968,8.458Z"/><path class="cls-3" d="M204.58,115.916c-.786-.651-2.1.688-3.438,1.089-29.508.074-48.856,55.928-49.517,75.253-.261,7.657,10.868,9.658,19.432,6.448,13.817-5.192,16.492-30.434,16.687-28.118,1.6,19.139-8.48,28.583,5.89,39.432,6.871,5.182,20.544,4.475,30.029,6.569v-84.9Z"/><path class="cls-2" d="M211.851,100.48a19.981,19.981,0,0,1,.912,5.043c-2.526,7.016-2.964,8.532-8.048,10.346v1.489h18.948V100.48Z"/><path class="cls-4" d="M213.9,64.343c-3.359-.661-6.574,2.782-7.179,6.15a72.146,72.146,0,0,0-1.084,9.435c-.089-.019.4-.028-.27-.028s-2.889.5-2.782,3.443c.074,2.2,1.991,8.6,4.508,7.546,3.642,9.76,8.546,15.268,16.571,17.222.135-.261.2-.065.325-.14v-42.6A50.881,50.881,0,0,1,213.9,64.343Z"/><path class="cls-4" d="M213.889,64.836c-3.289-.651-6.429,2.717-7.02,6a69.927,69.927,0,0,0-1.061,9.23c-.088-.019.4-.019-.265-.019s-2.819.484-2.717,3.349c.074,2.158,1.945,8.411,4.406,7.378,3.559,9.546,8.355,14.933,16.2,16.841.135-.261.2-.065.317-.14V65.832A49.177,49.177,0,0,1,213.889,64.836Z"/><path class="cls-5" d="M233.293,64.836c3.289-.651,6.429,2.717,7.02,6a69.922,69.922,0,0,1,1.056,9.23c.088-.019-.4-.019.265-.019s2.824.484,2.722,3.349c-.079,2.158-1.945,8.411-4.406,7.378-3.61,9.677-8.481,15-16.52,16.841V65.832A49.189,49.189,0,0,0,233.293,64.836Z"/><path class="cls-3" d="M193.634,210.019c-22.209,52.764-5.392,51.369-4.634,90.632l-1.5,13.454c-1.433,8.234,2.028,36.677,5.8,37.347l6.062,19.39c1.06,4.187.716,6.895-.67,8.523l-13.37,9.351c-3.81,2.252-8.262.716-10.188,1.879-1.786,1.079-3.034,2.856-.786,4.429h32.97c3.3-.13,6.02-.2,7.583-.121,3.285-1.982,3.731-4.922,1.67-8.69l-4.01-13.37c-.442-7.248.191-11.016,1.531-17.827.353-1.089.074-2.614,1-3.387,9.03-7.49,1.056-44.567,2.038-59.016-.726,3.666,4.536-25.457,6.559-32.258,0,0-.261-43.674-.265-45.8-12.556-1.247-21.185-6.606-28.829-12.989l-.968,8.458Z"/><path class="cls-6" d="M193.676,209.656c-1.414,3.526-2.6,6.336-3.661,9.379,4.615,3.442,14.542,6.28,33.425,5.536l.3-9.593C208.065,215.639,198.784,213.424,193.676,209.656Z"/><path class="cls-7" d="M193.3,351.452l3.517,18.469c1.065,4.187-.1,7.592-1.484,9.211l-9.379,4.912c-2.228,1.786-10.569,2.856-12.5,4.02-1.777,1.079-1.349,5.387.9,6.959h32.97c3.3-.13,6.02-.2,7.583-.121,3.285-1.982,3.931-7.983,1.87-11.751l-2.68-10.272c-.1-1.638.754-20.311,1.051-21.428Z"/><path class="cls-8" d="M172.522,392.084a5.005,5.005,0,0,0,1.828,2.94h32.97c3.3-.13,6.02-.2,7.583-.121a5.881,5.881,0,0,0,2.294-2.819Z"/><path class="cls-1" d="M182.92,256.6l8.523-1.4a2.036,2.036,0,0,1,2.321,1.674l4.643,28.415a2.025,2.025,0,0,1-1.665,2.317l-8.523,1.386a2.013,2.013,0,0,1-2.317-1.665l-4.648-28.415A2.021,2.021,0,0,1,182.92,256.6Z"/><path class="cls-9" d="M182.473,255.526l9.42-1.535a2.224,2.224,0,0,1,2.559,1.843l1.126,6.885-13.863,1.972-1.084-6.606A2.234,2.234,0,0,1,182.473,255.526Z"/><path class="cls-9" d="M266.523,255.954,258,254.568a2.023,2.023,0,0,0-2.317,1.666l-4.643,28.415a2.017,2.017,0,0,0,1.666,2.317l8.522,1.4a2.023,2.023,0,0,0,2.317-1.665l4.643-28.415A2.031,2.031,0,0,0,266.523,255.954Z"/><path class="cls-10" d="M266.97,254.893l-9.416-1.544a2.244,2.244,0,0,0-2.563,1.842l-1.126,6.885,13.868,1.982,1.079-6.606A2.237,2.237,0,0,0,266.97,254.893Z"/><path class="cls-11" d="M194.08,356.412a.893.893,0,0,1,0-1.786h5.275a.893.893,0,0,1,0,1.786Z"/><path class="cls-11" d="M194.973,360.385a.9.9,0,0,1,0-1.8h5.275a.9.9,0,0,1,0,1.8Z"/><path class="cls-11" d="M195.476,364.376a.9.9,0,0,1,0-1.8h5.28a.9.9,0,0,1,0,1.8Z"/><path class="cls-11" d="M196.369,368.34a.893.893,0,0,1,0-1.786h5.275a.893.893,0,0,1,0,1.786Z"/><path class="cls-7" d="M253.674,351.4l-3.517,18.478c-1.061,4.178.093,7.583,1.479,9.211L261.015,384c2.233,1.786,10.579,2.856,12.5,4.019,1.777,1.07,1.349,5.378-.893,6.95H239.662c-3.312-.13-6.029-.2-7.592-.111-3.284-1.991-3.926-7.983-1.865-11.751l2.68-10.272c.1-1.637-.754-20.32-1.056-21.437Z"/><path class="cls-8" d="M274.45,392.038a4.977,4.977,0,0,1-1.824,2.931H239.662c-3.312-.13-6.029-.2-7.592-.111a5.9,5.9,0,0,1-2.289-2.819Z"/><path class="cls-11" d="M252.9,356.365a.893.893,0,0,0,0-1.786h-5.28a.893.893,0,1,0,0,1.786Z"/><path class="cls-11" d="M252,360.329a.893.893,0,1,0,0-1.786h-5.28a.893.893,0,0,0,0,1.786Z"/><path class="cls-11" d="M251.5,364.32a.893.893,0,0,0,0-1.786h-5.275a.893.893,0,0,0,0,1.786Z"/><path class="cls-11" d="M250.6,368.284a.893.893,0,1,0,0-1.786h-5.275a.893.893,0,1,0,0,1.786Z"/><path class="cls-12" d="M253.837,210.112c1.419,3.526,2.117,5.462,3.177,8.5-4.615,3.442-14.691,6.7-33.575,5.955l.3-9.593C239.355,215.015,248.729,213.88,253.837,210.112Z"/><path class="cls-1" d="M187.744,170.588h0c13.231-4.81,7.5-40.5,6.434-52.745l.037-.01,7.569-.828L224.3,131.687v84.9c-9.481-2.094-23.986-1.172-30.853-6.355C180.7,200.622,187.093,186.889,187.744,170.588Z"/><path class="cls-1" d="M223.663,113.432c-5.68-.707-9.783-3.1-12.38-7.09A28.015,28.015,0,0,1,201.142,117c4.252,8.02,11.9,13.649,22.521,17.194Z"/><path class="cls-9" d="M260.043,170.532c-13.654-1.786-5.867-43.86-5.1-52.69l-.042-.01L247.338,117l-23.674,14.682v84.9c9.486-2.094,24.317-1.386,31.183-6.569C267.584,200.408,260.7,186.824,260.043,170.532Z"/><path class="cls-9" d="M223.663,113.432c5.685-.707,9.788-3.1,12.379-7.09A28.054,28.054,0,0,0,246.184,117c-4.252,8.02-11.9,13.649-22.521,17.194Z"/><path class="cls-13" d="M217.453,213.9h12.272a1.589,1.589,0,0,1,1.577,1.582v9.313a1.583,1.583,0,0,1-1.577,1.582H217.453a1.583,1.583,0,0,1-1.577-1.582v-9.313A1.589,1.589,0,0,1,217.453,213.9Z"/><path class="cls-14" d="M223.663,213.9h6.061a1.583,1.583,0,0,1,1.577,1.582v9.313a1.583,1.583,0,0,1-1.577,1.582h-6.061Z"/><path class="cls-3" d="M223.663,151.672h-17.32a2.976,2.976,0,0,0-2.968,2.968v47.368a2.973,2.973,0,0,0,2.968,2.968h17.32Z"/><path class="cls-1" d="M223.663,151.672h17.32a2.973,2.973,0,0,1,2.968,2.968v47.368a2.973,2.973,0,0,1-2.968,2.968h-17.32Z"/><path class="cls-15" d="M201.826,83.324h3.307l1.414-9.3a3.114,3.114,0,0,1,3.275-3.257h13.714V67.516l-20.572-.028C200.258,69.721,200.542,75.694,201.826,83.324Z"/><path class="cls-1" d="M223.1,45c.223,0,.437.009.661.009V67.5H201.212c-.051-.567-.074-1.144-.074-1.731C201.138,54.3,210.967,45,223.1,45Z"/><path class="cls-15" d="M245.03,83.333h-3.3l-1.414-9.295a3.111,3.111,0,0,0-3.275-3.257H223.324V67.525l20.571-.028C246.6,69.721,246.319,75.7,245.03,83.333Z"/><path class="cls-9" d="M223.761,45.009c-.223,0-.437.01-.661.01V67.507h22.549c.051-.568.074-1.145.074-1.731C245.723,54.313,235.894,45.009,223.761,45.009Z"/><path class="cls-3" d="M199.151,83.324h3.712l1.591-9.3a3.328,3.328,0,0,1,3.675-3.257h15.408l.14-4.475c-7.5-.428-15.268.391-23.247,1.191C197.392,69.721,197.709,75.694,199.151,83.324Z"/><path class="cls-1" d="M247.71,83.333H244l-1.591-9.295a3.327,3.327,0,0,0-3.675-3.257H223.324l-.14-4.476c7.5-.419,15.268.391,23.242,1.191C249.469,69.721,249.152,75.7,247.71,83.333Z"/><path class="cls-16" d="M316.821,218.123l22.2,11.5a1.439,1.439,0,0,0,1.931-.614h0a1.442,1.442,0,0,0-.61-1.935l-22.2-11.5Z"/><path class="cls-7" d="M219.118,166.885c-2.5-.493-5.4,2.633-2.9,5.061l-.53.2a2.893,2.893,0,0,1-.707-4.289l-1.521-2.084.572-1.516Z"/><path class="cls-7" d="M199.486,149.263c-.14-.047,5.257,1.916,5.257,1.916l-2.5,7.6-5.173-1.107Z"/><path class="cls-17" d="M201.966,161.488a3.913,3.913,0,0,1-.888,3.889l-9.463,9.853c.647,2.308,2.633,4.048,6.067,5.2l1.656-1.461a1.6,1.6,0,0,1,.391-2.2l8.174-7.751a3.42,3.42,0,0,1,3.028.186l3.489-4.755-10.16-5.22Z"/><rect class="cls-18" x="221.506" y="169.681" width="5.891" height="5.46" transform="translate(-31.904 292.354) rotate(-62.603)"/><path class="cls-6" d="M217.229,163.144l5.1,2.642a2.8,2.8,0,0,1,1.2,3.768l-2.233,4.308a2.8,2.8,0,0,1-3.768,1.191l-5.094-2.633a2.809,2.809,0,0,1-1.2-3.768l2.242-4.308a2.794,2.794,0,0,1,3.759-1.2Zm-.372.726a1.975,1.975,0,0,0-2.661.847l-2.238,4.308a2,2,0,0,0,.842,2.671l5.1,2.633a1.977,1.977,0,0,0,2.661-.837l2.238-4.317a1.988,1.988,0,0,0-.842-2.661Z"/><path class="cls-7" d="M227.529,169.741c-6.229,15.119-5.88,29.913,2.773,44.279L242.229,208c-6.066-10.989-6.564-21.651-2.544-32.062Z"/><path class="cls-19" d="M204.343,151.04c1.8-2.456,4.959-4.54,8.541-3.75l41.543,21.53-6.248,12.059-46.731-21.456S204.315,151.04,204.343,151.04Z"/><path class="cls-6" d="M204.343,151.04a10.572,10.572,0,0,1,.814-.977l46.507,24.1-3.484,6.718-46.731-21.456S204.315,151.04,204.343,151.04Z"/><path class="cls-17" d="M251.664,174.161l30.6,15.864-3.01,5.815-26.987-11.007c-2.638-1.042-4.062-2.354-4.089-3.954Z"/><polygon class="cls-17" points="282.266 190.024 262.155 179.604 264.876 174.347 284.992 184.777 282.266 190.024"/><rect class="cls-20" x="255.495" y="168.647" width="5.239" height="11.819" transform="translate(-15.701 323.277) rotate(-62.578)"/><path class="cls-12" d="M284.383,185.949l14.379,7.453c-.465,2.773-.2,5.415,2.373,7.583l-1.549,2.986-19.348-10.03Z"/><rect class="cls-18" x="309.513" y="197.252" width="2.913" height="21.86" transform="translate(-16.944 388.499) rotate(-62.607)"/><path class="cls-17" d="M301.135,200.985l-2.261,4.364c-1.117,2.27-.563,4.261,2.075,5.889l15.669,8.123,4.233-8.262-1.5-.772s-1.889,4.141-2.094,4.038l-13.933-7.22c-2.238-1.163-1.9-2.7-.716-5.35Z"/><path class="cls-21" d="M209.2,160.428a2.683,2.683,0,1,1,2.47-4.764l-.642,1.238a1.289,1.289,0,1,0-1.186,2.289Z"/><path class="cls-16" d="M209.2,160.428a2.683,2.683,0,1,0,2.47-4.764l-.642,1.238a1.289,1.289,0,1,1-1.186,2.289Z"/><path class="cls-17" d="M159.171,132.933,151.085,151.9c-.409,1.628.326,2.605,2.438,2.8l44.023,3.657,2.9-9.155-10.951-3.285c-1.968-.735-3.508-2.4-3.68-3.684Z"/><path class="cls-1" d="M280.777,167.583c-7.071,4.689-25.177,21.279-25.182,25.977,0,4.047-5.169,5.043-6.727,5.6l.032.046a77.558,77.558,0,0,1-8.709-.1l-4.833.019c-1.205-1.74-3.55-2.047-6.862-1.145l-4.912-3.712c-1.917-1.368-2.2,2.336-1.5,4.168l2.308,2.633c-1.423.046-1.21.093-2.3,1.851-.693,2.55.7,5.155,4.335,9.518a9.8,9.8,0,0,0,4.694,3.517c7.8.884,3.824.865,12.761-2.326l14.156-8.048c1.177-.344,2.275-1.21,3.47-1.089,11.137,1.051,40.766-24.33,37.752-31.709-.614-1.182-3.1-1.917-3.763-3.061Z"/><path class="cls-2" d="M255.711,193.43c-2.856,2.986-5.262,5.163-6.843,5.731l.032.046a77.558,77.558,0,0,1-8.709-.1l-4.833.019c-1.205-1.74-3.55-2.047-6.862-1.145l-4.912-3.712c-1.917-1.368-2.2,2.336-1.5,4.168l2.308,2.624c-1.423.056-1.21.1-2.3,1.861-.689,2.55.7,5.155,4.335,9.518a9.8,9.8,0,0,0,4.694,3.517c7.8.884,3.829.865,12.761-2.326l14.161-8.048c1.289-.381,2.559-.781,3.806-1.21Z"/><polygon class="cls-9" points="255.619 207.721 249.659 197.635 255.879 193.244 262.415 204.307 255.619 207.721"/><path class="cls-3" d="M167.629,202.808c7.29-4.177,27.494-19.3,27.173-21.958-.5-4.177,5.68-4.9,7.318-5.368l-.028-.056a83.857,83.857,0,0,1,8.681.67l4.824.307c1.089,1.8,3.41,2.27,6.774,1.591l4.657,4.029c1.824,1.489,2.345-2.2,1.768-4.066l-2.13-2.773c1.423.037,1.214-.019,2.41-1.7.866-2.494-.353-5.192-3.7-9.788a9.879,9.879,0,0,0-4.452-3.815c-7.723-1.4-3.759-1.107-12.886,1.489l-14.654,7.108c-1.377.307-2.773,1.479-4.066,1-9.09-3.322-36.882,12.979-37.691,22.777C151.206,197.217,155.212,206.521,167.629,202.808Z"/><path class="cls-5" d="M194.913,180.748c3.047-2.791,5.587-4.81,7.206-5.266l-.028-.056a83.857,83.857,0,0,1,8.681.67l4.824.307c1.089,1.8,3.41,2.27,6.774,1.591l4.657,4.029c1.824,1.489,2.345-2.2,1.768-4.066l-2.13-2.773c1.423.037,1.214-.019,2.41-1.7.866-2.494-.353-5.192-3.694-9.788a9.894,9.894,0,0,0-4.456-3.815c-7.723-1.386-3.759-1.107-12.886,1.489l-14.654,7.108c-1.312.288-2.6.614-3.88.949Z"/><polygon class="cls-1" points="196.011 166.429 201.296 176.868 194.801 180.85 189 169.388 196.011 166.429"/><path class="cls-1" d="M184.115,101.718C211,104.788,238.564,144.75,243.03,163.7c1.958,8.29-15,11.3-24.517,7.732-15.352-5.759-20.19-19.948-20.413-17.371-.028.325-.1,1.4-.289,3.62,2.68,9.537,6.648,35.83-5.383,48.112-6.359,6.485-23.386,4.317-33.407,6.522V107.049Z"/><path class="cls-2" d="M180.208,102.109H159.022V81.37h13.873a21.563,21.563,0,0,0-1.758,7.583C171.908,97.224,175.574,101.569,180.208,102.109Z"/><path class="cls-1" d="M192.131,205.079c24.684,58.635,5.992,57.072,5.15,100.718l1.665,14.952c1.591,9.146-2.256,40.743-6.448,41.488l-6.736,21.548c-1.177,4.652-.8,7.667.745,9.472l14.859,10.393c4.234,2.5,9.179.8,11.323,2.093,1.982,1.2,3.368,3.164.875,4.913h-36.64c-3.671-.14-6.69-.214-8.425-.131-3.652-2.205-4.15-5.462-1.856-9.658l4.457-14.85c.493-8.067-.214-12.244-1.7-19.809-.391-1.219-.084-2.912-1.117-3.778-10.034-8.318-1.172-49.517-2.261-65.567.8,4.066-5.211-28.294-7.462-35.858,0,0,.465-48.531.465-50.885,13.947-1.4,23.544-7.35,32.034-14.449l1.075,9.407Z"/><path class="cls-3" d="M137.818,100.5c-.879-.726-2.336.773-3.824,1.219-32.788.084-54.292,62.143-55.025,83.617-.293,8.513,12.077,10.737,21.593,7.164,15.354-5.759,18.331-33.821,18.55-31.234,1.782,21.269-9.43,31.755,6.545,43.814,7.63,5.75,22.823,4.968,33.365,7.294V118.028Z"/><path class="cls-2" d="M145.894,83.351a22.36,22.36,0,0,1,1.014,5.6c-2.81,7.8-3.294,9.481-8.942,11.5v1.656h21.055V83.351Z"/><path class="cls-4" d="M148.173,43.194c-3.736-.735-7.309,3.089-7.983,6.829a80.2,80.2,0,0,0-1.2,10.486c-.1-.019.446-.019-.307-.019s-3.2.549-3.089,3.815c.088,2.438,2.214,9.555,5.015,8.383,4.047,10.849,9.5,16.971,18.413,19.138.149-.288.223-.065.363-.149V44.329A56.184,56.184,0,0,1,148.173,43.194Z"/><path class="cls-4" d="M148.155,43.744c-3.647-.716-7.141,3.015-7.8,6.671a78.2,78.2,0,0,0-1.177,10.253c-.1-.019.442-.028-.3-.028s-3.131.549-3.019,3.731c.084,2.391,2.158,9.341,4.894,8.206,3.959,10.6,9.29,16.589,18,18.7.149-.279.214-.065.353-.149V44.851A55.028,55.028,0,0,1,148.155,43.744Z"/><path class="cls-5" d="M169.722,43.744c3.652-.716,7.141,3.015,7.8,6.671A78.277,78.277,0,0,1,178.7,60.668c.1-.019-.437-.028.3-.028s3.14.549,3.019,3.731c-.084,2.391-2.158,9.341-4.894,8.206-4.01,10.747-9.425,16.664-18.357,18.7V44.851A55.027,55.027,0,0,0,169.722,43.744Z"/><path class="cls-3" d="M125.657,205.079c-24.689,58.635-6,57.072-5.154,100.718l-1.665,14.952c-1.591,9.146,2.256,40.743,6.448,41.488l6.736,21.548c1.181,4.652.8,7.667-.745,9.472l-14.859,10.393c-4.234,2.5-9.181.8-11.323,2.093-1.979,1.2-3.368,3.164-.872,4.913h36.633c3.675-.14,6.694-.214,8.429-.131,3.652-2.205,4.15-5.462,1.856-9.658l-4.456-14.85c-.493-8.067.214-12.244,1.7-19.809.391-1.219.084-2.912,1.117-3.778,10.034-8.318,1.172-49.517,2.261-65.567-.8,4.066,5.043-28.294,7.295-35.858,0,0-.293-48.531-.3-50.885-13.952-1.4-23.54-7.35-32.035-14.449l-1.074,9.407Z"/><path class="cls-6" d="M125.7,204.679c-1.577,3.917-2.889,7.043-4.071,10.421,5.127,3.824,16.162,6.978,37.143,6.15l.335-10.663C141.688,211.322,131.374,208.865,125.7,204.679Z"/><path class="cls-7" d="M125.285,362.236l3.908,20.525c1.182,4.652-.107,8.439-1.647,10.244l-10.421,5.452c-2.484,1.991-11.754,3.173-13.9,4.466-1.977,1.2-1.5,5.983.993,7.732h36.633c3.675-.14,6.694-.214,8.429-.131,3.652-2.205,4.368-8.867,2.079-13.054l-2.977-11.416c-.111-1.824.837-22.572,1.172-23.819Z"/><path class="cls-8" d="M102.192,407.389a5.574,5.574,0,0,0,2.03,3.266h36.633c3.675-.14,6.694-.214,8.429-.131a6.478,6.478,0,0,0,2.549-3.136Z"/><path class="cls-1" d="M113.748,256.829l9.472-1.545a2.251,2.251,0,0,1,2.573,1.852l5.159,31.578a2.244,2.244,0,0,1-1.852,2.577l-9.472,1.544a2.237,2.237,0,0,1-2.568-1.851l-5.166-31.578A2.255,2.255,0,0,1,113.748,256.829Z"/><path class="cls-9" d="M113.25,255.647l10.463-1.712a2.48,2.48,0,0,1,2.847,2.047l1.256,7.648L112.4,265.835l-1.2-7.341A2.487,2.487,0,0,1,113.25,255.647Z"/><path class="cls-9" d="M206.65,256.131l-9.472-1.554a2.253,2.253,0,0,0-2.577,1.852l-5.164,31.578a2.259,2.259,0,0,0,1.856,2.577l9.467,1.544a2.243,2.243,0,0,0,2.577-1.852L208.5,258.7A2.238,2.238,0,0,0,206.65,256.131Z"/><path class="cls-10" d="M207.143,254.94l-10.463-1.712a2.482,2.482,0,0,0-2.847,2.047l-1.251,7.648,15.407,2.2,1.2-7.332A2.477,2.477,0,0,0,207.143,254.94Z"/><path class="cls-11" d="M126.146,367.754a.991.991,0,1,1,0-1.982h5.866a.991.991,0,1,1,0,1.982Z"/><path class="cls-11" d="M127.137,372.164a1,1,0,0,1,0-1.991H133a1,1,0,0,1,0,1.991Z"/><path class="cls-11" d="M127.7,376.6a1,1,0,0,1,0-1.991h5.867a1,1,0,0,1,0,1.991Z"/><path class="cls-11" d="M128.69,381a.991.991,0,1,1,0-1.982h5.866a.991.991,0,0,1,0,1.982Z"/><path class="cls-7" d="M192.368,362.18l-3.908,20.525c-1.181,4.652.1,8.439,1.647,10.244l10.421,5.452c2.48,1.991,11.751,3.173,13.891,4.466,1.982,1.2,1.508,5.983-.991,7.732H176.793c-3.675-.139-6.69-.214-8.429-.13-3.647-2.205-4.364-8.867-2.075-13.054L169.266,386c.112-1.824-.837-22.572-1.172-23.819Z"/><path class="cls-8" d="M215.461,407.334a5.524,5.524,0,0,1-2.033,3.266H176.793c-3.675-.139-6.69-.214-8.429-.13a6.534,6.534,0,0,1-2.55-3.136Z"/><path class="cls-11" d="M191.5,367.7a.991.991,0,1,0,0-1.982h-5.862a.991.991,0,1,0,0,1.982Z"/><path class="cls-11" d="M190.512,372.108a1,1,0,0,0,0-1.991h-5.867a1,1,0,0,0,0,1.991Z"/><path class="cls-11" d="M189.949,376.546a1,1,0,1,0,0-1.991h-5.861a1,1,0,0,0,0,1.991Z"/><path class="cls-11" d="M188.963,380.947a.991.991,0,0,0,0-1.982h-5.871a.991.991,0,1,0,0,1.982Z"/><path class="cls-12" d="M192.55,205.181c1.572,3.917,2.349,6.066,3.527,9.444-5.127,3.824-16.32,7.452-37.305,6.624l.335-10.663C176.458,210.633,186.874,209.368,192.55,205.181Z"/><path class="cls-1" d="M119.107,161.265h0c14.7-5.35,8.332-45.014,7.141-58.617l.047-.009,8.411-.921,25.019,16.31v94.345c-10.542-2.326-26.657-1.3-34.286-7.062C111.282,194.63,118.381,179.371,119.107,161.265Z"/><path class="cls-1" d="M159.022,97.745c-6.317-.791-10.877-3.433-13.756-7.881a31.114,31.114,0,0,1-11.272,11.854c4.727,8.9,13.226,15.166,25.028,19.1Z"/><path class="cls-9" d="M199.449,161.191c-15.175-1.982-6.523-48.736-5.666-58.542l-.047-.009-8.411-.921-26.3,16.31v94.345c10.542-2.326,27.02-1.544,34.649-7.294C207.828,194.4,200.175,179.3,199.449,161.191Z"/><path class="cls-9" d="M159.022,97.745c6.313-.791,10.877-3.433,13.756-7.881a31.143,31.143,0,0,0,11.268,11.854c-4.722,8.9-13.221,15.166-25.024,19.1Z"/><path class="cls-13" d="M152.118,209.387h13.64a1.761,1.761,0,0,1,1.749,1.758V221.5a1.759,1.759,0,0,1-1.749,1.749h-13.64a1.759,1.759,0,0,1-1.749-1.749V211.145A1.761,1.761,0,0,1,152.118,209.387Z"/><path class="cls-14" d="M159.022,209.387h6.736a1.761,1.761,0,0,1,1.749,1.758V221.5a1.759,1.759,0,0,1-1.749,1.749h-6.736Z"/><path class="cls-3" d="M159.022,140.237h-19.25a3.311,3.311,0,0,0-3.294,3.3v52.634a3.3,3.3,0,0,0,3.294,3.294h19.25Z"/><path class="cls-1" d="M159.022,140.237h19.246a3.312,3.312,0,0,1,3.3,3.3v52.634a3.3,3.3,0,0,1-3.3,3.294H159.022Z"/><path class="cls-15" d="M134.757,64.287h3.67L140,53.95a3.459,3.459,0,0,1,3.642-3.61h15.24V46.721l-22.86-.028C133.017,49.168,133.328,55.811,134.757,64.287Z"/><path class="cls-1" d="M158.394,21.7c.247,0,.488.01.73.01V46.7H134.073c-.056-.633-.079-1.275-.079-1.917C133.994,32.039,144.917,21.7,158.394,21.7Z"/><path class="cls-15" d="M182.766,64.3H179.1l-1.577-10.327a3.463,3.463,0,0,0-3.638-3.62H158.641V46.73L181.5,46.7C184.506,49.177,184.194,55.82,182.766,64.3Z"/><path class="cls-9" d="M159.124,21.711c-.242,0-.484.009-.73.009V46.711H183.45c.051-.633.083-1.274.083-1.916C183.534,32.048,172.606,21.711,159.124,21.711Z"/><path class="cls-3" d="M131.784,64.287h4.126l1.763-10.337a3.7,3.7,0,0,1,4.089-3.61h17.12l.149-4.978C150.7,44.9,142.07,45.8,133.2,46.693,129.83,49.168,130.179,55.811,131.784,64.287Z"/><path class="cls-1" d="M185.739,64.3h-4.122l-1.768-10.327a3.7,3.7,0,0,0-4.089-3.62h-17.12l-.149-4.969c8.328-.474,16.962.428,25.829,1.321C187.7,49.177,187.344,55.82,185.739,64.3Z"/><path class="cls-16" d="M262.541,214.076l24.665,12.784a1.589,1.589,0,0,0,2.149-.679h0a1.6,1.6,0,0,0-.679-2.149l-24.67-12.784Z"/><path class="cls-7" d="M153.965,157.152c-2.777-.558-6,2.922-3.224,5.611l-.586.223c-1.573-1.284-2.061-2.828-.791-4.764l-1.684-2.317.633-1.684Z"/><path class="cls-7" d="M132.156,137.567,138,139.689l-2.787,8.458-5.746-1.238Z"/><path class="cls-17" d="M134.91,151.142a4.336,4.336,0,0,1-.991,4.326l-10.514,10.951c.721,2.559,2.931,4.5,6.745,5.778l1.837-1.628a1.765,1.765,0,0,1,.433-2.428l9.081-8.625a3.851,3.851,0,0,1,3.368.2l3.875-5.275-11.291-5.8Z"/><rect class="cls-18" x="156.625" y="160.251" width="6.541" height="6.065" transform="translate(-58.664 230.066) rotate(-62.591)"/><path class="cls-6" d="M151.876,152.994l5.662,2.931a3.109,3.109,0,0,1,1.326,4.187L156.38,164.9a3.11,3.11,0,0,1-4.183,1.321l-5.662-2.931a3.122,3.122,0,0,1-1.331-4.187l2.484-4.792a3.109,3.109,0,0,1,4.187-1.321Zm-.419.8a2.209,2.209,0,0,0-2.958.94l-2.484,4.792a2.206,2.206,0,0,0,.939,2.959l5.662,2.931a2.2,2.2,0,0,0,2.959-.93l2.48-4.792a2.2,2.2,0,0,0-.935-2.959Z"/><path class="cls-7" d="M163.311,160.316c-6.922,16.8-6.522,33.244,3.089,49.2l13.254-6.68c-6.741-12.207-7.295-24.07-2.829-35.635Z"/><path class="cls-19" d="M137.548,139.54c2-2.726,5.508-5.043,9.5-4.168l46.163,23.921-6.941,13.4-51.932-23.837S137.52,139.53,137.548,139.54Z"/><path class="cls-6" d="M137.548,139.54a12.2,12.2,0,0,1,.907-1.1l51.68,26.787-3.871,7.462-51.932-23.837S137.52,139.53,137.548,139.54Z"/><path class="cls-17" d="M190.135,165.228l34.007,17.632-3.35,6.466L190.81,177.082c-2.935-1.154-4.517-2.605-4.545-4.392Z"/><rect class="cls-22" x="211.195" y="161.565" width="6.571" height="25.172" transform="translate(-38.835 284.434) rotate(-62.602)"/><polygon class="cls-12" points="201.794 171.277 190.135 165.228 192.815 160.065 204.473 166.103 201.794 171.277"/><path class="cls-12" d="M226.5,178.329l15.975,8.281c-.516,3.089-.232,6.01,2.638,8.429l-1.721,3.313-21.5-11.137Z"/><polygon class="cls-6" points="246.002 196.007 267.565 207.191 266.076 210.056 244.514 198.882 246.002 196.007"/><path class="cls-17" d="M245.109,195.039l-2.512,4.848c-1.242,2.521-.628,4.736,2.3,6.541l17.417,9.025,4.7-9.183-1.661-.856s-2.1,4.606-2.326,4.485l-15.486-8.02c-2.484-1.293-2.108-3-.8-5.936Z"/><path class="cls-21" d="M142.954,149.97a2.982,2.982,0,1,1,2.745-5.294l-.712,1.377a1.435,1.435,0,1,0-1.316,2.55Z"/><path class="cls-16" d="M142.954,149.97a2.982,2.982,0,0,0,2.745-5.294l-.712,1.377a1.435,1.435,0,0,1-1.316,2.55Z"/><path class="cls-17" d="M87.356,119.414l-8.99,21.074c-.449,1.8.367,2.894,2.714,3.117L130,147.662l3.224-10.169-12.17-3.648c-2.186-.818-3.9-2.67-4.089-4.1Z"/><path class="cls-1" d="M222.486,157.916c-7.853,5.22-27.978,23.642-27.982,28.862,0,4.5-5.741,5.61-7.476,6.224l.038.065a90.563,90.563,0,0,1-9.677-.112l-5.368.019c-1.34-1.936-3.95-2.28-7.63-1.275l-5.457-4.131c-2.131-1.517-2.442,2.605-1.67,4.633l2.568,2.922c-1.582.065-1.34.112-2.55,2.066-.772,2.829.772,5.731,4.815,10.579a10.875,10.875,0,0,0,5.215,3.908c8.667.977,4.252.958,14.184-2.586l15.729-8.951c1.3-.382,2.526-1.331,3.852-1.21,12.379,1.181,45.3-27.038,41.953-35.226-.679-1.312-3.443-2.13-4.182-3.405Z"/><path class="cls-2" d="M194.634,186.647c-3.177,3.312-5.847,5.732-7.606,6.355l.038.065a90.563,90.563,0,0,1-9.677-.112l-5.368.019c-1.34-1.936-3.95-2.28-7.63-1.275l-5.457-4.131c-2.126-1.517-2.442,2.605-1.67,4.633l2.568,2.922c-1.582.065-1.34.112-2.55,2.066-.772,2.829.772,5.731,4.815,10.579a10.875,10.875,0,0,0,5.215,3.908c8.667.977,4.252.958,14.184-2.586l15.729-8.951q2.149-.628,4.233-1.34Z"/><polygon class="cls-9" points="194.527 202.52 187.907 191.318 194.82 186.433 202.082 198.724 194.527 202.52"/><path class="cls-3" d="M96.753,197.058c8.1-4.634,30.55-21.446,30.2-24.4-.558-4.643,6.308-5.443,8.132-5.964l-.037-.065a92.158,92.158,0,0,1,9.653.744l5.354.335c1.21,2.019,3.8,2.531,7.532,1.777l5.173,4.475c2.024,1.647,2.61-2.438,1.968-4.512l-2.368-3.089c1.577.047,1.345-.019,2.675-1.889.958-2.782-.391-5.768-4.113-10.877a10.815,10.815,0,0,0-4.945-4.233c-8.583-1.554-4.178-1.238-14.324,1.647l-16.283,7.9c-1.526.344-3.08,1.647-4.517,1.116-10.1-3.694-40.978,14.422-41.885,25.307C78.508,190.852,82.958,201.19,96.753,197.058Z"/><path class="cls-5" d="M127.071,172.551c3.387-3.107,6.215-5.34,8.011-5.852l-.037-.065a92.158,92.158,0,0,1,9.653.744l5.354.344c1.21,2.009,3.8,2.521,7.532,1.768l5.173,4.475c2.024,1.647,2.61-2.438,1.968-4.512l-2.368-3.089c1.577.047,1.345-.019,2.675-1.889.958-2.782-.391-5.768-4.108-10.877a10.851,10.851,0,0,0-4.95-4.233c-8.583-1.554-4.178-1.238-14.324,1.647l-16.283,7.9c-1.461.325-2.894.679-4.308,1.06Z"/><polygon class="cls-1" points="128.29 156.631 134.166 168.243 126.95 172.663 120.503 159.925 128.29 156.631"/></svg>