<svg id="projeto" xmlns="http://www.w3.org/2000/svg" viewBox="0 0 97 50"><defs><style>.cls-1{fill:#fff;fill-rule:evenodd;}</style></defs><title>ufpe</title><path class="cls-1" d="M91.669,36.492a2.548,2.548,0,0,0,.291,1.322.944.944,0,0,0,.844.467,1.152,1.152,0,0,0,.986-.459,2.2,2.2,0,0,0,.342-1.33c0-1.143-.42-1.711-1.266-1.711a1,1,0,0,0-.883.461,2.217,2.217,0,0,0-.315,1.25m-.894,0a2.747,2.747,0,0,1,.568-1.762,1.854,1.854,0,0,1,1.524-.719,2,2,0,0,1,1.607.65,2.754,2.754,0,0,1,.557,1.83,2.82,2.82,0,0,1-.582,1.865,2.03,2.03,0,0,1-1.644.693,1.769,1.769,0,0,1-1.5-.687A3,3,0,0,1,90.774,36.492Zm-.6-2.135-.358.715a1.263,1.263,0,0,0-.928-.289,1.2,1.2,0,0,0-1,.51,2.068,2.068,0,0,0-.391,1.291,1.954,1.954,0,0,0,.361,1.238,1.158,1.158,0,0,0,.961.459,1.281,1.281,0,0,0,1.076-.494l.4.7a2.022,2.022,0,0,1-1.549.564,1.946,1.946,0,0,1-1.584-.676,2.716,2.716,0,0,1-.564-1.828,2.657,2.657,0,0,1,.625-1.8,2.02,2.02,0,0,1,1.6-.726A2.313,2.313,0,0,1,90.179,34.358ZM82.23,34.1h.865v3.3a.837.837,0,0,0,.9.883,1.018,1.018,0,0,0,.73-.242.849.849,0,0,0,.262-.66V34.1h.863v3.348a1.464,1.464,0,0,1-.5,1.178A2.024,2.024,0,0,1,84,39.051a1.909,1.909,0,0,1-1.309-.416,1.53,1.53,0,0,1-.461-1.191Zm-3.186,2.535v1.607c.174.016.316.022.426.022a1.42,1.42,0,0,0,.838-.193.763.763,0,0,0,.262-.652.721.721,0,0,0-.238-.6,1.422,1.422,0,0,0-.852-.191C79.394,36.623,79.249,36.629,79.044,36.635Zm0-1.842v1.166c.135.01.275.014.42.014q.844,0,.844-.635c0-.375-.256-.56-.77-.56C79.4,34.777,79.241,34.781,79.044,34.793Zm.625,4.172H78.183V34.1c.654-.031,1.115-.045,1.377-.045a1.934,1.934,0,0,1,1.186.32,1.1,1.1,0,0,1,.428.926,1.015,1.015,0,0,1-.611.914,1.379,1.379,0,0,1,.4,2.359A2.07,2.07,0,0,1,79.669,38.965Zm-2.021.006h-.836L76.3,36.344l-.979,2.688h-.309l-.98-2.687-.527,2.627h-.83l.978-4.871h.459l1.053,3.279L76.2,34.1h.455Zm-7.2-3.451-.586,1.8h1.172Zm1.191,3.445-.353-.986h-1.67l-.34.986h-.959l1.939-4.932h.381l1.957,4.932Zm-4.191.066-2.359-3.082v3.021h-.832V34.1h.414l2.3,2.936V34.1h.83v4.932ZM61,34.85V36.2a3.366,3.366,0,0,0,.363.021,1.546,1.546,0,0,0,.795-.154.639.639,0,0,0,.248-.594.514.514,0,0,0-.268-.5,1.862,1.862,0,0,0-.846-.145A1.9,1.9,0,0,0,61,34.85Zm1.848,4.115-1.3-2.01c-.131,0-.316-.01-.549-.023v2.033h-.9V34.1c.049,0,.236-.01.561-.025s.59-.025.789-.025c1.234,0,1.855.478,1.855,1.434a1.307,1.307,0,0,1-.258.789,1.388,1.388,0,0,1-.647.5l1.44,2.191Zm-5.752-4.1v1.141H58.7v.734H57.093V38.2H59.3v.766H56.23V34.1h3.107v.766ZM52.44,33.82v1.945a3.961,3.961,0,0,0,.434.031,1.842,1.842,0,0,0,1.08-.248.929.929,0,0,0,.34-.8c0-.631-.51-.945-1.523-.945A2.276,2.276,0,0,0,52.44,33.82Zm0,2.908v2.236H51.362V32.887c.719-.033,1.142-.049,1.264-.049a3.874,3.874,0,0,1,2.105.443,1.536,1.536,0,0,1,.666,1.381q0,2.095-2.465,2.092C52.81,36.754,52.647,36.746,52.44,36.729Zm-6.773-1.863v1.141h1.607v.734H45.667V38.2h2.2v.766H44.806V34.1h3.1v.766ZM41.3,34.858V38.18c.141.012.289.02.453.02a1.223,1.223,0,0,0,1.023-.479,2.112,2.112,0,0,0,.369-1.326c0-1.043-.482-1.561-1.451-1.561A3.909,3.909,0,0,0,41.3,34.858Zm.213,4.107H40.433V34.1c.685-.023,1.121-.035,1.3-.035a2.268,2.268,0,0,1,1.685.621,2.237,2.237,0,0,1,.625,1.652Q44.04,38.968,41.509,38.965ZM65.765,28.893V24.022h.861v4.1h2.2v.77ZM63.1,25.447l-.588,1.795h1.172Zm1.191,3.445-.355-.988h-1.67l-.336.988H60.97l1.941-4.937h.379l1.955,4.938Zm-5.889-4.121v1.355c.16.012.279.018.363.018a1.605,1.605,0,0,0,.795-.15.643.643,0,0,0,.25-.6.519.519,0,0,0-.27-.5,1.922,1.922,0,0,0-.846-.143C58.606,24.754,58.507,24.762,58.405,24.772Zm1.848,4.121-1.3-2.014c-.133,0-.312-.01-.549-.02v2.033h-.9V24.022c.047,0,.236-.006.561-.025s.588-.023.787-.023q1.854,0,1.855,1.434a1.323,1.323,0,0,1-.256.789,1.367,1.367,0,0,1-.643.5l1.438,2.2Zm-5.752-4.1V25.93h1.608v.732H54.5v1.461h2.205v.77H53.638V24.022h3.107v.77Zm-4.373-.01v3.324c.141.012.293.018.453.018a1.226,1.226,0,0,0,1.025-.475,2.125,2.125,0,0,0,.369-1.33c0-1.039-.482-1.562-1.451-1.562C50.433,24.756,50.3,24.764,50.128,24.781Zm.219,4.111H49.265V24.025c.691-.021,1.123-.037,1.3-.037a2.275,2.275,0,0,1,1.686.623,2.237,2.237,0,0,1,.623,1.654C52.874,28.014,52.03,28.893,50.347,28.893Zm-4.09-4.1V25.93h1.609v.732H46.257v1.461h2.209v.77H45.394V24.022H48.5v.77Zm-4.621-1.025v1.426h2.139v.916H41.636v2.785H40.554V22.8h4.012v.961Zm42.549-9.051v1.143H85.79v.732H84.185v1.461H86.39v.764h-3.07V13.947h3.109v.768Zm-4.373-.01v3.324c.139.012.291.021.451.021a1.232,1.232,0,0,0,1.023-.476,2.118,2.118,0,0,0,.371-1.328q0-1.564-1.449-1.564C80.112,14.682,79.981,14.693,79.812,14.705Zm.215,4.109H78.948V13.951c.689-.025,1.119-.035,1.3-.035a2.27,2.27,0,0,1,1.686.621,2.239,2.239,0,0,1,.625,1.652C82.558,17.941,81.708,18.815,80.026,18.815Zm-3.742-3.443L75.7,17.164h1.17Zm1.191,3.443-.355-.986H75.452l-.336.986h-.961l1.94-4.932h.381l1.957,4.932Zm-6.348-4.109v3.324c.141.012.291.021.453.021a1.232,1.232,0,0,0,1.023-.476,2.118,2.118,0,0,0,.373-1.328c0-1.043-.486-1.564-1.453-1.564C71.429,14.682,71.3,14.693,71.128,14.705Zm.217,4.109h-1.08V13.951c.688-.025,1.121-.035,1.3-.035a2.259,2.259,0,0,1,1.684.621,2.231,2.231,0,0,1,.625,1.652Q73.872,18.817,71.345,18.815Zm-2.959,0V13.947h.863v4.867Zm-3.727-.269.316-.774a1.785,1.785,0,0,0,1.008.359c.5,0,.76-.178.76-.533a.739.739,0,0,0-.18-.473,2.273,2.273,0,0,0-.74-.508,3.538,3.538,0,0,1-.752-.461,1.307,1.307,0,0,1-.3-.432,1.444,1.444,0,0,1-.1-.553,1.21,1.21,0,0,1,.41-.936,1.532,1.532,0,0,1,1.064-.369,2,2,0,0,1,1.238.311l-.262.746a1.63,1.63,0,0,0-.959-.324.644.644,0,0,0-.467.158.549.549,0,0,0-.162.408c0,.281.31.57.926.873a3.015,3.015,0,0,1,.707.438,1.419,1.419,0,0,1,.326.469,1.493,1.493,0,0,1,.113.6,1.21,1.21,0,0,1-.467.973,1.9,1.9,0,0,1-1.25.383A2.206,2.206,0,0,1,64.659,18.545ZM61.63,14.7v1.35c.16.014.283.021.369.021a1.524,1.524,0,0,0,.789-.156.63.63,0,0,0,.25-.592.514.514,0,0,0-.266-.5,1.909,1.909,0,0,0-.85-.145A1.736,1.736,0,0,0,61.63,14.7Zm1.85,4.113-1.3-2.008c-.131,0-.312-.012-.549-.023v2.031h-.895V13.947c.047,0,.234-.008.563-.025s.588-.023.783-.023c1.236,0,1.855.476,1.855,1.435a1.3,1.3,0,0,1-.258.787,1.377,1.377,0,0,1-.641.5l1.44,2.193Zm-5.752-4.1v1.143h1.607v.732H57.728v1.461h2.205v.764H56.864V13.947h3.109v.768Zm-3.281,4.168h-.475l-1.822-4.935H53.1l1.127,3.293,1.19-3.293h.933Zm-3.692-.068V13.947h.866v4.867Zm-1.363.068L47.028,15.8V18.82H46.2V13.947h.414l2.3,2.937V13.947h.83v4.935Zm-8.838-6.152h1.082v4.123a1.045,1.045,0,0,0,1.121,1.107,1.279,1.279,0,0,0,.912-.3,1.067,1.067,0,0,0,.324-.824v-4.1h1.08v4.188a1.814,1.814,0,0,1-.629,1.469,2.509,2.509,0,0,1-1.68.533,2.358,2.358,0,0,1-1.633-.522,1.893,1.893,0,0,1-.578-1.486Z"/><path class="cls-1" d="M30.169,43.256l.641.1-.189-.9ZM29.405,44l1.129-1.994.432.072.475,2.252L31,44.26l-.129-.6-.855-.141-.3.531Zm-1.567-.566.325.047a.79.79,0,0,0,.395-.023.547.547,0,0,0,.246-.244,1.113,1.113,0,0,0,.137-.416,1.016,1.016,0,0,0-.021-.41.628.628,0,0,0-.17-.3.851.851,0,0,0-.441-.152l-.26-.039Zm-.47.24.289-2.131.891.129a1.105,1.105,0,0,1,.541.2.794.794,0,0,1,.268.393,1.207,1.207,0,0,1,.045.572,1.35,1.35,0,0,1-.193.553.88.88,0,0,1-.381.346,1.043,1.043,0,0,1-.607.063Zm-.957-.1.217-2.137.43.047-.215,2.137Zm-1.477-.2-.588-2.211.463.041.457,1.711.717-1.6.311.025-.924,2.078Zm-2.187-1.014.648.035-.279-.873Zm-.686.824.922-2.1.438.023.7,2.191-.447-.023-.187-.584-.863-.047-.245.563Zm-1.076-1.2.08,0a.487.487,0,0,0,.357-.105.387.387,0,0,0,.121-.277.382.382,0,0,0-.031-.158.249.249,0,0,0-.1-.121.5.5,0,0,0-.24-.053l-.162,0Zm-.463,1.123.072-2.15.715.025a1.066,1.066,0,0,1,.438.082.475.475,0,0,1,.188.2.788.788,0,0,1-.187.852.864.864,0,0,1-.594.17l-.178-.008-.031.842ZM17.9,43.072v-2.15h.576l.5,1.516.518-1.516H20v2.15h-.4V41.453l-.512,1.476h-.35l-.5-1.5v1.645Zm-.959,0L16.9,40.92l.434-.008.037,2.148Zm-2.689.07-.012-.369a1.665,1.665,0,0,0,.367.111,1.3,1.3,0,0,0,.225.012.368.368,0,0,0,.268-.094.268.268,0,0,0,.086-.2.272.272,0,0,0-.059-.16.762.762,0,0,0-.254-.176l-.141-.074a1.354,1.354,0,0,1-.422-.307.564.564,0,0,1-.117-.336.548.548,0,0,1,.166-.422.71.71,0,0,1,.512-.189,2.368,2.368,0,0,1,.572.053l.01.344a1.484,1.484,0,0,0-.52-.105.354.354,0,0,0-.234.078.224.224,0,0,0-.078.172.238.238,0,0,0,.055.139.785.785,0,0,0,.252.17l.156.084a1.293,1.293,0,0,1,.449.328.582.582,0,0,1,.105.33.6.6,0,0,1-.182.457.878.878,0,0,1-.614.211A3.114,3.114,0,0,1,14.247,43.139Zm-2.174-1.961.434-.033.088,1.318a.7.7,0,0,0,.15.465.417.417,0,0,0,.313.088.354.354,0,0,0,.285-.133.638.638,0,0,0,.08-.447l-.092-1.346.377-.031.09,1.318a1.135,1.135,0,0,1-.055.541.675.675,0,0,1-.244.275.979.979,0,0,1-.43.123,1.079,1.079,0,0,1-.449-.057.669.669,0,0,1-.312-.234,1.062,1.062,0,0,1-.147-.533Zm-1.316,2.272L10.6,41.6l-.744.066-.025-.291,1.924-.176.025.295-.744.066.158,1.85Zm-2.215-.91.1-.016A.462.462,0,0,0,9,42.361a.421.421,0,0,0,.068-.285.28.28,0,0,0-.1-.2.513.513,0,0,0-.348-.033l-.15.02Zm-.27,1.217-.25-2.137.774-.1a.883.883,0,0,1,.371.016.466.466,0,0,1,.217.162.565.565,0,0,1,.107.273.669.669,0,0,1-.332.656l.8.912-.525.068L8.815,42.8l-.24.029.105.871Zm-.957.172L7.024,41.8l.43-.066.293,2.131Zm-1.453.281-1.125-1.98.459-.082.871,1.531.289-1.742.307-.057-.371,2.252Zm-2.477-3.42a71.072,71.072,0,0,1,29.441,0l-.5,2.889c.576.105,1.18.23,1.793.371l-.828,4a44.943,44.943,0,0,0-5.584-.936l4.041-1.1v-.07a66.342,66.342,0,0,0-27.408.027v.043l4.064,1.1a44.8,44.8,0,0,0-5.609.938l-.83-4c.656-.15,1.3-.279,1.914-.393Z"/><path class="cls-1" d="M18.088,10.238c-.728.006-3.05-.418-3.062-1.957-.006-.586.484-1.135.775-1.639,1.8-2.406,2.811-3.51,1.539-5.754a2.937,2.937,0,0,1,1.31,1.025,3.541,3.541,0,0,1,.25,3.031c-.371.914-1.59,2.051-1.207,3.1.357.975,1.609,1.053,1.2.027-.211-.533-.473-.586-.307-1.2.264-.984,1.536-2.232.979-3.42,1.279.727.494,2.721.615,3.068.068.287,1.057,1.17.982,1.766-.178,1.461-1.877,2.018-3.077,1.949"/><path class="cls-1" d="M9.917,10.621c-.73,0-3.051-.422-3.062-1.957-.006-.584.482-1.137.775-1.641,1.8-2.408,2.811-3.51,1.54-5.756a2.981,2.981,0,0,1,1.313,1.025,3.557,3.557,0,0,1,.25,3.033c-.375.912-1.594,2.051-1.211,3.1.357.978,1.609,1.055,1.2.027-.211-.529-.469-.582-.3-1.193.262-.986,1.531-2.236.975-3.424,1.281.728.5,2.721.617,3.068.066.291,1.057,1.17.982,1.762-.182,1.465-1.877,2.021-3.076,1.955"/><path class="cls-1" d="M26.263,10.621c-.73,0-3.051-.422-3.064-1.957a3.707,3.707,0,0,1,.777-1.641c1.8-2.408,2.811-3.51,1.539-5.756a2.966,2.966,0,0,1,1.311,1.025,3.544,3.544,0,0,1,.248,3.033c-.371.912-1.59,2.051-1.209,3.1.361.978,1.609,1.055,1.205.027-.211-.529-.469-.582-.309-1.193.266-.986,1.535-2.236.979-3.424,1.283.728.5,2.721.617,3.068.066.291,1.055,1.17.982,1.762-.181,1.465-1.875,2.021-3.076,1.955"/><path class="cls-1" d="M18.1,15.811a55.434,55.434,0,0,0-12.33,1.246c.344,6.264.01,18.852,2.869,22.229-.357.059-.715.117-1.07.184C5.5,36.057,5.271,27.543,5.088,20.988c-.046-1.732-.091-3.326-.156-4.656l-.008-.01.008,0A58.047,58.047,0,0,1,18.1,14.94a58.031,58.031,0,0,1,13.164,1.379l.014,0v.01c-.074,1.33-.119,2.924-.168,4.656-.18,6.555-.418,15.068-2.475,18.481-.359-.066-.719-.125-1.074-.184,2.863-3.377,2.523-15.965,2.865-22.229A55.387,55.387,0,0,0,18.1,15.811"/><path class="cls-1" d="M20.206,12.785a9.042,9.042,0,0,0-2.107-.221,9.06,9.06,0,0,0-2.109.221c-.885-.572-.963-1.617-.02-2.029a13.106,13.106,0,0,1,2.129-.2,13.038,13.038,0,0,1,2.125.2c.947.412.867,1.457-.018,2.029"/><path class="cls-1" d="M9.034,20.555A2.829,2.829,0,0,1,11.62,17c3.529-.26,5.58.613,9.5.85a10.655,10.655,0,0,0,4.346-.654c-.334,1.037-4.84,1.844-6.684,1.854A12.934,12.934,0,0,1,16.8,18.9c-.395-.06-6.338-.98-6.156.963.016.178.244.178.318.148a8.1,8.1,0,0,1,3.006-.84c2.277-.084,3.844.611,6.346.1-1.746,1.143-6.2.748-7.1,1.016-.916.275-1.654.777-2.475,1.012-1.33.377-1.666-.592-1.707-.746"/><path class="cls-1" d="M11,25.84a2.926,2.926,0,0,1,.727-1c.531-.428,1.188.658.522.9a3.14,3.14,0,0,1-1.248.1"/><path class="cls-1" d="M9.1,26.662a7.108,7.108,0,0,0-1.029-.422,6.137,6.137,0,0,0,.932-.379A3.51,3.51,0,0,0,7.9,25.152c-.6-.176-.752.807-.346,1.07-.465.2-.387,1.154.158,1.174-.18.289.127.9.512.693a2.808,2.808,0,0,0,.723-.693,4.83,4.83,0,0,0-.748-.146,7.24,7.24,0,0,0,.91-.588"/><path class="cls-1" d="M10.79,38.875a12.041,12.041,0,0,0,3.322-1.006,16.588,16.588,0,0,0,3.016-1.545A4.468,4.468,0,0,1,14.7,35.4a3.854,3.854,0,0,1-1.44-1.9,3.47,3.47,0,0,1-.6,1.467c-.353.5-1,1.531-1.639.875-.3-.205-1.184.246-1.691.131-1-.23-.982.822-.42,1.109a.7.7,0,0,0,.379,1.236c-.209.326.262.877.787.684a4.865,4.865,0,0,1,.713-.135"/><path class="cls-1" d="M11.575,30.676a6.736,6.736,0,0,1,.658.408c.016.014.033.025.047.037a2.725,2.725,0,0,1,.346-.732,2,2,0,0,1,.462-.475c.049-.291.122-.5.172-.713a2.7,2.7,0,0,1,.512-.828,1.883,1.883,0,0,0-.4-.074,4.783,4.783,0,0,1-1.514-.461c-.043.477-.092.945-.143,1.412s-.1.939-.143,1.426"/><path class="cls-1" d="M11.888,21.68a1.069,1.069,0,0,1,.736,1.086,1.6,1.6,0,0,1-.736,1.178H7.97a1.591,1.591,0,0,1-.738-1.178A1.071,1.071,0,0,1,7.97,21.68Z"/><path class="cls-1" d="M26.21,39.029a3.727,3.727,0,0,0,1.176-1.2h0a4.377,4.377,0,0,0,.68-2.332,17.336,17.336,0,0,0-.182-2.141,49.006,49.006,0,0,0-2.451-6.4,7.127,7.127,0,0,1-.9-2.393,1.865,1.865,0,0,1,2.049-1.779,2.169,2.169,0,0,1,1.674,1.027h0a2.676,2.676,0,0,1,.166,1.8l0,.01c-1.146,1.092-.92,1.863-.52,3.223a14.538,14.538,0,0,1,.646,3.3c.123-1.19.229-2.346.328-3.5.107-1.236.248-1.842.336-3.1h0a3.8,3.8,0,0,0-.555-2.367,2.482,2.482,0,0,0-2.189-1.064,2.571,2.571,0,0,0-2.34,3.889c.729,1.414,1.668,3.75,2.246,5.238s.854,2.766.334,3.279c-.01.01-.027.01-.031,0a3.977,3.977,0,0,0-2.16-1.32A4.608,4.608,0,0,1,21.8,31.25a2.322,2.322,0,0,1-.7.789,5.414,5.414,0,0,1-1.414.748.021.021,0,0,1-.023-.027,1.147,1.147,0,0,0,.086-.228,1.27,1.27,0,0,0,.031-.315,3.273,3.273,0,0,1-.8.483c-1.021.543-2.107,1.039-2,2.141.117,1.254,1.543,1.588,3.111,1.685a8.6,8.6,0,0,1,2.545.4,1.635,1.635,0,0,1,.223-.6.9.9,0,0,1,.4-.387.021.021,0,0,1,.027.027,2.994,2.994,0,0,0-.242,1.215c.035,1.563,2.033,1.713,3.174,1.844"/><path class="cls-1" d="M16.5,22.057l.02-.02,0-.006h0l0,0h0l0-.006h0l0,0h0l0,0h0l0,0h0l.006-.006h0l0,0h0l0,0h0l.006,0h0l.006,0h0v-.006h0c.006,0,.006,0,.008,0h0l0,0h0l.006,0h0l.006,0h0l0,0h0c0-.006.006-.006.006-.006h0l.006,0h0l0,0h0l.006-.006h0l.008-.006h0l0,0h0l.008,0h0l0-.006h0l.006,0,0,0h0l.006-.006h0l.006,0h0l0,0h0l.01,0h0l0-.008h0l.008,0h0l.006-.006h0l.006,0h0l.008,0h0l.006-.006h0l.008,0h0l.006,0h0l.006-.006h0l.008,0h0l.008,0h0l.006,0h0s.006,0,.012,0h0l0,0h0l.008,0h0l.008,0h0l0,0h0l.008,0h0a.009.009,0,0,0,.008,0h0l.008,0h0l.01-.006h0l.008,0h0l.005,0h0l.008,0h0l.01-.006h.006l.008,0h.009l.006,0,0,0s0,0,.008-.006h0l.006,0h.01s.006,0,.01-.006h.006l.006,0h0l.008,0h0l.006,0h.006l.006,0h0l.01,0h0l.006,0h.006l.006,0h.008l.006,0h.008l0,0h.01l.006,0h.012l.01,0h.027l.006,0h0l.01,0H17.1l.008,0h.127l.008,0h.006l.01,0h0l.008,0H17.3l.006,0h.016l.008,0h0l.006,0h0l.006,0h0l.01,0h.008l0,0h0l.008,0h0l.01,0h0v.01h0V21.8h0v0h0v.006h0v0h0v0h0v0h0v0h0v0h0v0h0v0h0l0,0h0v0h0v0h0v.006h0l0,0h0l0,0h0v0h0l0,0h0v0h0v0h0l0,0h0v0h0v0h0v0h0l0,0h0v0h0v0h0v0h0v0h0v0h0v0h0v0h0v0h0l0,0h0v0h0v0h0v0h0l0,0h0v0h0v0h0l0,0h0v0h0l0,0h0v0h0l0,0h0v0h0l0,.006h0l0,0h0l0,0h0v0h0l0,0h0v0h0l0,0h0v0h0l-.006,0h0v0h0l0,.006h0l0,0h0l0,0h0l0,0h0v0l0,0h0v0h0l0,0h0l0,0h0v0h0l0,0h0l0,0h0v0h0l0,0h0l0,0h0v0h0l0,0h0l0,0v0l0,0h0l0,0h0v0h0v0h-.006v0l0,0h0v0h0v0h0v0h0l0,0h-.006l0,.006,0,0h-.01l-.006,0H17.21l0,.006h-.012l-.006,0h-.018l0,0h-.014l0,0h-.012c-.006,0-.006,0-.006,0h0l-.008,0h-.016l-.008,0h-.047l-.006,0h-.023l-.006,0H16.97l0,0H16.8l-.006,0h-.06l-.006,0h-.031l0,0h-.064l-.006,0h-.023l0,0h-.006l0,0h-.023l-.006,0h-.023Zm-3.32,10.438a.059.059,0,0,1,.109.006A5.445,5.445,0,0,0,15,35.115a4.429,4.429,0,0,0,2.416,1.014,1.925,1.925,0,0,1-.531-.471,1.662,1.662,0,0,1-.359-.93,1.707,1.707,0,0,1,.383-1.137,4.981,4.981,0,0,1,2.064-1.42,3.607,3.607,0,0,0,.779-.516,1.7,1.7,0,0,0,.615-1.115c0-.055.092-.064.109-.012a1.736,1.736,0,0,1,.074.711,3.286,3.286,0,0,1-.129.621,3.163,3.163,0,0,0,1.24-1.4,7.054,7.054,0,0,0,.676-2.627.06.06,0,0,1,.1-.043,1.155,1.155,0,0,1,.219.256c.012.021.023.043.037.065a5.441,5.441,0,0,0-.209-1.858,6.407,6.407,0,0,0-.93-1.83.052.052,0,0,1,.043-.082.384.384,0,0,1,.205.039.459.459,0,0,1,.09.041,6.226,6.226,0,0,0-1.254-1.863c-.057-.064-.109-.131-.156-.184a.076.076,0,0,1-.014-.045.83.83,0,0,1,.126-.338.94.94,0,0,1,.253-.207,2.248,2.248,0,0,0-1.008-.41,5.531,5.531,0,0,0-1.566-.125,1.676,1.676,0,0,1,.238.815,1.791,1.791,0,0,1-.226.928c-.029.047-.117.018-.107-.035a3.585,3.585,0,0,0,.064-.785,1.386,1.386,0,0,0-.338-.912,8.374,8.374,0,0,0-3.289.781c-.066.027-.1.039-.123.049a1.669,1.669,0,0,1-.006.5.825.825,0,0,0,.326.9.587.587,0,0,1,.832-.318,1.621,1.621,0,0,1,.572.449,1.562,1.562,0,0,1,.318.563c.039.156.006.275-.125.314a.141.141,0,0,1-.041.02,1.271,1.271,0,0,1-.408,0,.872.872,0,0,1-.437-.166.24.24,0,0,1-.068-.105.377.377,0,0,0-.029-.057.381.381,0,0,0-.014.105,1.51,1.51,0,0,0,.1.477.793.793,0,0,0,.2.291l.109-.037a2.754,2.754,0,0,1,.564-.152l.008,0c.141,0,.291,0,.445.01a3.358,3.358,0,0,0,1.324-.111c.285-.139.387-.426.1-1.025-.025-.051.065-.1.1-.055.545.693.316,1.117,0,1.358a1.672,1.672,0,0,1-.44.228.48.48,0,0,1,.223.307.729.729,0,0,1-.043.4,1.214,1.214,0,0,1-.1.211s-.023.021-.03.021a13.029,13.029,0,0,0-3.07,1.582,3.1,3.1,0,0,0-1.23,1.473,1.811,1.811,0,0,1,.447-.193,2.111,2.111,0,0,1,.686-.059.058.058,0,0,1,.018.109,3.366,3.366,0,0,0-.443.174,3.435,3.435,0,0,0-1.545,1.412,2.943,2.943,0,0,0-.17,2.4,4.52,4.52,0,0,0,.182.463c.072-.182.126-.373.182-.564C13.067,32.836,13.116,32.662,13.181,32.494Z"/><path class="cls-1" d="M15.405,24.016a3.366,3.366,0,0,0-.607.15c-.5.16-.926.291-1.254-.318,0-.006.01-.016.012-.01a1.653,1.653,0,0,0,1.48.01c.4-.127.764-.24,1.029-.023.006,0,.006.008,0,.014a1.188,1.188,0,0,1-.209.055,2.274,2.274,0,0,0-.449.123h0"/><path class="cls-1" d="M11.685,25.539l.02-.244a2.475,2.475,0,0,0-.15.2c-.012.016-.025.035-.039.057a1.586,1.586,0,0,0,.17-.01m-2.691.676Zm-.664.418.009.17c.049-.029.092-.059.139-.088A.129.129,0,0,0,8.5,26.7C8.438,26.676,8.382,26.656,8.329,26.633Zm-.072-.988.016.2.17-.072A1.993,1.993,0,0,0,8.257,25.645Zm.924-.012c0,.006.01.01.012.016C9.878,26.205,9.144,25.606,9.181,25.633Zm1.705,9.873.748-9.348c-.205.006-.408,0-.605-.01-.006,0-.008,0-.01,0a.342.342,0,0,1-.287-.463,5.282,5.282,0,0,1,.33-.576,2.514,2.514,0,0,1,.465-.52.747.747,0,0,1,.246-.129l.012-.168-3.625-.016.051.691a4.53,4.53,0,0,1,.943.646h0a.1.1,0,0,1,.029.025l0,0,0,0s.012.006.014.012a.3.3,0,0,1-.035.49.382.382,0,0,1-.051.02c-.037.021-.072.037-.113.057l-.158-.129h0c.014.014.086.072.158.129-.027.014-.057.025-.084.037a.067.067,0,0,1,.016.01,1.577,1.577,0,0,1,.145.064c.066.031.109.053.141.068h0a.319.319,0,0,1,.085.521c-.09.068-.186.133-.277.2a.33.33,0,0,1,.168.476,3.819,3.819,0,0,1-.516.565,1.643,1.643,0,0,1-.137.107.907.907,0,0,1-.086.059l0,.031h0v.008l.011.152c.116,2.082.356,4.867.534,7.145a1.1,1.1,0,0,1,.334.029C9.776,35.787,10.511,35.453,10.886,35.506Z"/><path class="cls-1" d="M11.978,13.1a8.923,8.923,0,0,0-2.113-.148,8.915,8.915,0,0,0-2.1.295c-.9-.539-1.019-1.578-.09-2.029a13.537,13.537,0,0,1,2.119-.275,13.267,13.267,0,0,1,2.133.127c.959.381.918,1.428.051,2.031"/><path class="cls-1" d="M18.1,12.99a7.473,7.473,0,0,0-2.084.271c0,.025,0,.518,0,1,.7-.021,1.392-.031,2.082-.031s1.385.01,2.08.031v-1a7.437,7.437,0,0,0-2.08-.271"/><path class="cls-1" d="M9.878,13.377a7.287,7.287,0,0,0-2.07.346c0,.047.023.662.049,1.254,1.373-.217,2.756-.379,4.141-.5-.012-.43-.025-.869-.025-.9a7.489,7.489,0,0,0-2.094-.2"/><path class="cls-1" d="M24.218,13.1a10.136,10.136,0,0,1,4.215.146c.9-.539,1.018-1.578.088-2.029A13.456,13.456,0,0,0,26.4,10.94a13.267,13.267,0,0,0-2.133.127c-.961.381-.916,1.428-.053,2.031"/><path class="cls-1" d="M26.315,13.377a7.29,7.29,0,0,1,2.072.346c0,.047-.023.635-.045,1.207-1.373-.215-2.758-.377-4.145-.5.015-.416.027-.824.029-.859a7.454,7.454,0,0,1,2.088-.2"/><path class="cls-1" d="M18.1,48.707h0l-.023-.035a5.874,5.874,0,0,1-.812-2.969c0-.031,0-.205-.006-.434.564,0,1.123,0,1.68.006,0,.229,0,.4-.006.428a5.833,5.833,0,0,1-.81,2.969Z"/><path class="cls-1" d="M11.042,49.111h0l-.021-.031a5.835,5.835,0,0,1-.914-2.941c0-.029-.012-.193-.018-.412.555-.068,1.116-.129,1.67-.178.01.277.016.5.014.527a5.845,5.845,0,0,1-.709,3Z"/><path class="cls-1" d="M25.153,49.111h0l-.022-.035a5.845,5.845,0,0,1-.709-3c0-.025.006-.234.014-.5.561.059,1.119.117,1.67.182-.006.205-.016.357-.016.383a5.863,5.863,0,0,1-.916,2.941Z"/></svg>