<svg id="projeto" xmlns="http://www.w3.org/2000/svg" viewBox="0 0 115 30"><defs><style>.cls-1{fill:none;stroke:#fff;stroke-miterlimit:10;}.cls-2{fill:#fff;}</style></defs><title>voltar_ava</title><path class="cls-1" d="M2.5,15A12.5,12.5,0,0,0,15,27.5h85a12.5,12.5,0,0,0,0-25H15A12.5,12.5,0,0,0,2.5,15Z"/><path class="cls-2" d="M99.709,9.739V7.5a.379.379,0,0,0-.2-.333.372.372,0,0,0-.387.018l-6.736,4.441a.379.379,0,0,0,0,.632L99.121,16.7a.385.385,0,0,0,.209.063.375.375,0,0,0,.178-.045.381.381,0,0,0,.2-.334V14.136a6.388,6.388,0,0,1,4.262,1.951,8.278,8.278,0,0,1,2.436,6.328.316.316,0,0,0,.58.174c.01-.016.066-.108.131-.223a8.328,8.328,0,0,0,.98-3.925C108.1,11.993,103.2,10.152,99.709,9.739Z"/><path class="cls-2" d="M11.846,19.545,9.038,10.782h2.171l1.066,3.705c.3,1.04.571,2.041.779,3.134h.039c.222-1.054.494-2.094.793-3.095L15,10.782h2.106L14.16,19.545Z"/><path class="cls-2" d="M23.715,16.295a3.19,3.19,0,0,1-3.355,3.393,3.115,3.115,0,0,1-3.289-3.276,3.173,3.173,0,0,1,3.393-3.366A3.09,3.09,0,0,1,23.715,16.295Zm-4.6.065c0,1.092.455,1.911,1.3,1.911.767,0,1.261-.767,1.261-1.911,0-.949-.364-1.911-1.261-1.911C19.464,14.448,19.112,15.424,19.112,16.359Z"/><path class="cls-2" d="M24.937,10.315h1.977v9.23H24.937Z"/><path class="cls-2" d="M30.722,11.367v1.82h1.417v1.455H30.722v2.3c0,.767.183,1.118.78,1.118a3.1,3.1,0,0,0,.585-.053l.013,1.5a3.893,3.893,0,0,1-1.287.168,2.057,2.057,0,0,1-1.482-.545,2.634,2.634,0,0,1-.546-1.886v-2.6h-.846V13.188h.846V11.809Z"/><path class="cls-2" d="M36.9,19.545l-.117-.638H36.74a2.29,2.29,0,0,1-1.82.78,1.949,1.949,0,0,1-2.054-1.95c0-1.651,1.482-2.444,3.731-2.431v-.092c0-.338-.183-.818-1.157-.818a3.576,3.576,0,0,0-1.755.481L33.321,13.6a5.239,5.239,0,0,1,2.47-.559,2.473,2.473,0,0,1,2.8,2.742V18a9.812,9.812,0,0,0,.091,1.547Zm-.234-3c-1.04-.013-1.846.234-1.846,1a.71.71,0,0,0,.78.754,1.08,1.08,0,0,0,1.026-.729,1.392,1.392,0,0,0,.039-.338Z"/><path class="cls-2" d="M40.147,15.28c0-.937-.026-1.547-.052-2.093h1.7l.064,1.17h.053a1.864,1.864,0,0,1,1.716-1.312,2.089,2.089,0,0,1,.416.025V14.93a2.8,2.8,0,0,0-.533-.053,1.272,1.272,0,0,0-1.353,1,2.367,2.367,0,0,0-.038.441v3.225H40.147Z"/><path class="cls-2" d="M51.326,19.545l-.117-.638H51.17a2.29,2.29,0,0,1-1.82.78,1.949,1.949,0,0,1-2.054-1.95c0-1.651,1.482-2.444,3.731-2.431v-.092c0-.338-.183-.818-1.157-.818a3.576,3.576,0,0,0-1.755.481L47.751,13.6a5.238,5.238,0,0,1,2.47-.559,2.473,2.473,0,0,1,2.8,2.742V18a9.812,9.812,0,0,0,.091,1.547Zm-.234-3c-1.04-.013-1.846.234-1.846,1a.71.71,0,0,0,.78.754,1.08,1.08,0,0,0,1.026-.729,1.392,1.392,0,0,0,.039-.338Z"/><path class="cls-2" d="M60.856,16.295A3.19,3.19,0,0,1,57.5,19.688a3.115,3.115,0,0,1-3.289-3.276,3.173,3.173,0,0,1,3.394-3.366A3.09,3.09,0,0,1,60.856,16.295Zm-4.6.065c0,1.092.455,1.911,1.3,1.911.767,0,1.261-.767,1.261-1.911,0-.949-.364-1.911-1.261-1.911C56.6,14.448,56.253,15.424,56.253,16.359Z"/><path class="cls-2" d="M66.81,17.295l-.624,2.25H64.131l2.679-8.763h2.6l2.717,8.763H69.994l-.676-2.25Zm2.223-1.481-.546-1.859c-.156-.521-.311-1.17-.442-1.69h-.025c-.13.521-.26,1.184-.4,1.69l-.52,1.859Z"/><path class="cls-2" d="M74.6,19.545l-2.808-8.763h2.171l1.066,3.705c.3,1.04.571,2.041.779,3.134h.039c.222-1.054.494-2.094.793-3.095l1.118-3.744h2.106L76.91,19.545Z"/><path class="cls-2" d="M82.137,17.295l-.624,2.25H79.458l2.679-8.763h2.6l2.718,8.763H85.321l-.676-2.25Zm2.223-1.481-.546-1.859c-.156-.521-.312-1.17-.442-1.69h-.025c-.13.521-.261,1.184-.4,1.69l-.52,1.859Z"/></svg>